<svg version="1" xmlns="http://www.w3.org/2000/svg" width="1397.333" height="1397.333" viewBox="0 0 1048.000000 1048.000000"><path d="M493.5 73.1c-130 10.9-242.7 72.3-323.8 176.2-18.2 23.3-40.8 61.5-53 89.7C96 386.9 84.5 431.5 80 481.3c-1.4 14.9-1 17.7 2.4 17.7 1.3 0 11.1-3.1 21.7-6.9 20.6-7.3 38.1-12.7 59.7-18.5 12.6-3.4 18.5-5.6 19.5-7.3.3-.5 2.4-8.8 4.6-18.5 8.8-38.2 14.1-53.2 29.6-83.8 12.1-23.7 24.3-42.7 41.2-64 8.1-10.2 38.5-40.7 50.3-50.6 22.5-18.7 52.6-37 82-49.9 21.5-9.4 56.8-19.6 83.3-24 21-3.5 92.2-2.8 112.7 1 48.7 9.3 92 26.8 131 52.8 17.8 11.9 31.1 22.6 49.2 39.5 12.2 11.4 9.2 10.3 36.8 12.7 35.1 3 66.5 7.4 75.2 10.5 15.2 5.4 25.1 10.9 38.2 21 2.3 1.7 4.3 2.7 4.8 2.2 2.8-2.8-18.2-37.8-39-65.2-32.4-42.6-75.1-81.9-118.2-108.8-59.5-37.1-119.9-58.3-191-66.7-16.1-2-64.4-2.8-80.5-1.4zm38.9 33.6c1.3 2.7 4.5 9.9 7.1 16.1 7.1 16.9 9.5 18.8 11.4 9.1l.9-4.4v4c.1 5.9-1.1 11.8-2.6 12.3-.8.2-3.4-4.3-7.2-12.5-9.7-20.5-10.3-21.7-13.2-23.1-2.9-1.4-3.2-2-2.2-4.6 1.1-2.9 3.3-1.7 5.8 3.1zm-43.1 0c-.5 1.6-.7 5-.6 7.8.2 3.9.8 5.4 2.8 7 2.4 2 2.4 2.1.5 3.3-2.9 1.8-2.9 14.3 0 17.2 2.6 2.6 2.5 2.8-.5 2.3-2-.4-2.5-1.3-3-4.7-1-7.8-2.5-33.8-1.9-34.7.3-.5 1.2-.9 2-.9 1.1 0 1.3.7.7 2.7zm94.2-.8l3 .7-3.3 1.1c-1.8.7-3.6 2.2-4.1 3.5l-.8 2.3-.8-2.5c-.4-1.4-1.4-3.3-2.3-4.3-1.4-1.6-1.3-1.7 1.9-1.6 1.9.1 4.8.4 6.4.8zM427 116c1.2.8 1 1-1 .9-1.4 0-3.4-.4-4.5-.9-1.7-.7-1.6-.9 1-.9 1.7 0 3.7.4 4.5.9zm204.6 4.6c-.4 1.4-.9 2.4-1.2 2.1-.3-.2-.2-1.7.2-3.1.3-1.5.9-2.5 1.1-2.2.3.3.2 1.7-.1 3.2zM409 122.9c-1.6 3.1-1.2 6.6 1.1 8.7 1.6 1.4 4.2 2 12.2 2.4 11.3.7 14 1.7 16.2 6 2 3.9 1.9 5.9-.6 9.5-1.2 1.6-1.8 2.1-1.4 1 1.9-5 1.7-8.2-.8-11.1-2.4-2.7-3-2.9-12.9-3.5-5.8-.4-11.4-1.3-12.6-2-4-2.5-4.9-7.9-2-11.7 1.6-1.8 2-1.4.8.7zm117.7 4.8c-.3 1-.5.2-.5-1.7s.2-2.7.5-1.8c.2 1 .2 2.6 0 3.5zm76.8 3.9c-1.2 1.2-3 5-3.9 8.4-1 3.4-2 6-2.2 5.7-.5-.4 2-13.1 3.8-18.9l1.1-3.7 1.7 3.2c1.6 3.1 1.5 3.3-.5 5.3zm42.4 3.8c-2.3 6.4-4.3 11.5-4.5 11.3-.6-.5 3.3-13 5.8-19 3.7-8.6 2.9-4.2-1.3 7.7zm-16.2-7.2c-.3.8-.6.5-.6-.6-.1-1.1.2-1.7.5-1.3.3.3.4 1.2.1 1.9zm-244 .4c-.3.3-1.2.4-1.9.1-.8-.3-.5-.6.6-.6 1.1-.1 1.7.2 1.3.5zm189.8 9.2c-1 7-1.8 4-.9-3.5.5-4.5.9-5.8 1.2-3.9.2 1.7.1 5-.3 7.4zM376 130c0 .5-.5 1-1.1 1-.5 0-.7-.5-.4-1 .3-.6.8-1 1.1-1 .2 0 .4.4.4 1zm252.5 4.2c-1.1 4.9-1.4 5-4 2.1l-2.3-2.8 2.6-1.2c4.1-1.7 4.4-1.6 3.7 1.9zm42.5 7.9c-1.6 5.2-3.5 10.1-4.1 10.9-1 1.3-1 1.3-.6 0 2.3-8 7-21 7.3-20.7.3.2-.9 4.7-2.6 9.8zM374.2 147c3 1.8 3.1 2 1 2-3 0-8.2-5.2-8.2-8.2 0-2.1.2-2 2 1 1.1 1.8 3.4 4.1 5.2 5.2zm315.8-4.2c-3.3 4.5-2.1 7.2 7.6 17.3 7.2 7.5 8.4 9.2 7.8 11.1-1.2 3.8-3.5 6.8-6.5 8.4-4.4 2.2-5.8 1.6-1.7-.8 4.5-2.6 6.3-5.7 5.4-9.4-.4-1.5-4-6.2-8-10.3-4.1-4.2-7.7-8.6-8-9.7-.8-2.5.5-6.4 2.9-8.8 2.7-2.6 2.9-1.1.5 2.2zm21.5 3.8c.8 1.3 1.1 2.4.6 2.4-.9 0-7.1-6.6-7.1-7.6s5 2.9 6.5 5.2zm-86.4 2.5c-.9 2.3-1 2.3-1 .2-.1-1.2.2-3 .6-4 .6-1.5.8-1.5 1.1-.2.1.8-.2 2.6-.7 4zm-283.3-1.9c.9.9.7 1.4-.6 2.4-2.4 1.8-3.2 1.7-3.2-.4 0-3.1 1.7-4.1 3.8-2zm58 2.5c2.7 2.9 3.1 10.3.7 12.3-1.4 1.1-1.4 1-.5-1.6.6-1.5.8-4 .5-5.4-.8-2.9-4.3-7-6.1-7-.7 0-1.6-.5-1.9-1-1.3-2.1 5 .2 7.3 2.7zm242.1 7c1.2 2.4 1.9 4.3 1.6 4.3-.9 0-4.5-6.4-4.5-7.9 0-1.9.3-1.4 2.9 3.6zm-218.9-.4c.8.3-.1.6-2.1.6-2.3.1-4.6-.7-6-1.9l-2.4-2 4.5 1.4c2.5.8 5.2 1.7 6 1.9zm243 1.2c0 1-6.3 7.5-7.3 7.5-.6 0 .7-1.8 2.8-4 3.8-3.9 4.5-4.5 4.5-3.5zm58.6 6.2c-3.2 6.1-7.5 13-7.6 12 0-1.2 9.2-17.8 9.7-17.3.2.2-.7 2.6-2.1 5.3zm-361.6 5c4.1 4.3 6.4 6.8 5 5.6-1.4-1.2-4-2.8-5.8-3.6-2.4-1-4-2.7-5.2-5.5-1.1-2.3-1.8-4.2-1.7-4.2.1 0 3.6 3.5 7.7 7.7zm20.5-.2l3 1.5-4-.6c-2.2-.3-4.7-1-5.5-1.5-2.6-1.5 3.2-1 6.5.6zm299.5 6.9c2.7 3 3 3.7 1.2 2.7-2.5-1.3-8.2-8.7-8.1-10.5 0-.6.8 0 1.7 1.4.9 1.4 3.3 4.2 5.2 6.4zm70.6-6.3c1 1.7-1.2 3.2-3.6 2.4-1.7-.5-1.9-1-.9-2.1 1.4-1.7 3.5-1.8 4.5-.3zm-442.7 13.8c4.5 7.2 9.5 14.3 11.1 16 1.7 1.6 2.6 3.2 2.1 3.5-.5.4-1.7-.2-2.7-1.1-2.8-2.9-19.4-29.1-19.4-30.7 0-1.5 1.3.3 8.9 12.3zm35.9-8.9c.7 0 .1 1.7-1.4 4-1.5 2.2-2.8 4-3 4-.2 0-.4-2.5-.4-5.7 0-5.4.1-5.5 1.8-4 1 1 2.4 1.7 3 1.7zm396.2 1.4c0 .2-.7.9-1.5 1.6-1.3 1.1-1.4 1-.9-.4.5-1.4 2.4-2.3 2.4-1.2zm-30 9c-2.9 4.9-3.5 4.5-1-.5 1.2-2.3 2.4-3.8 2.7-3.5.3.2-.5 2.1-1.7 4zm20.3.7c-.5 2.5 0 3.6 2.8 6.6 3.3 3.5 2.8 3.6-2.1.3-4.4-2.9-5.7-3-9.5-.4-5.6 3.7-3.8 1.1 3-4.6 3.3-2.7 6.1-5 6.2-5 .1 0 0 1.4-.4 3.1zm-458.1 2.2c-2.5 2.6-3.2 4.2-3.2 7.3 0 5.8 4.4 14 11.2 20.6 3.2 3.2 5.5 5.8 5 5.8-1.3 0-11.8-10.9-14.8-15.4-3.5-5.1-4.3-11.6-1.9-15.3 2.5-3.9 5.7-7.4 6.4-6.8.2.3-1 2-2.7 3.8zm502.1 2c-8.4 3.1-9.3 7.3-3.2 16.2 8.8 13.1 9.4 16.3 3.7 21-3.1 2.6-4.8 3.2-4.8 1.5 0-.6.5-1 1.2-1 .6 0 2-.7 3-1.7 2.5-2.2 2.3-8-.5-12.4-1.2-2-3.7-6.1-5.5-9-4.2-6.9-4-10.5.7-13.6 1.9-1.3 4.6-2.3 6-2.2 2.5 0 2.5.1-.6 1.2zm-30.7 8.4c-.3 2.1-1.1 5.6-1.8 7.8l-1.2 4-.6-6.5c-.5-5.2-.3-6.8.9-7.8 2.6-2.1 3.4-1.4 2.7 2.5zm47.4 4c0 2.3-.9 1.4-3-3l-2.1-4.2 2.6 3c1.3 1.6 2.5 3.6 2.5 4.2zm-486 4.9c0 .8-.4 1.2-1 .9-.5-.3-1-1.3-1-2.1s.5-1.2 1-.9c.6.3 1 1.3 1 2.1zm450 13.6c.6 1 .6 1.8.2 1.8-1.2 0-4.2-6.7-4.1-9.3 0-1.5.5-1 1.5 1.8.7 2.2 1.8 4.8 2.4 5.7zm55.5-4.2l2.9 3h-2.9c-2.4 0-5 2.1-14.7 12.2-6.5 6.8-11.8 11.9-11.8 11.4s3.7-5 8.3-10c10.1-11.1 13.7-15.8 13.7-17.9 0-2.5 1.3-2.1 4.5 1.3zM304 217c0 .5-.5 1-1.1 1-.5 0-.7-.5-.4-1 .3-.6.8-1 1.1-1 .2 0 .4.4.4 1zm-35.5 8c-.3.5-1.6 1.5-2.8 2.1-2.2 1.2-2.2 1.2-.3-1 1.9-2.1 4.3-3 3.1-1.1zm-33.8.6c-.3.3-2.9 1.7-5.7 3-5.7 2.6-5.9 1.4-.2-1.6 3.5-1.8 7.2-2.7 5.9-1.4zm22 15.6c1.3 1.2 2.3 2.8 2.3 3.6 0 1-.8.6-2.5-1.2-3.5-3.8-7.9-3.4-17.5 1.4-4.4 2.2-9.3 4-10.8 4-3 0-8.2-3.3-8.2-5.2 0-.5 1.4.2 3.1 1.7 4 3.3 6.6 2.9 17.4-3.1 8.8-4.9 12-5.1 16.2-1.2zm1 15.2c-2.4 3.5-8 7.6-12.2 8.7-5.9 1.7-5.1.4 1.3-2 4.6-1.6 6.6-3 8.7-6.1 3-4.3 4.9-4.8 2.2-.6z"/><path d="M604 278.6c-65.7 3.1-88.8 4.7-124.7 8.8-20.8 2.4-26.8 3.7-23.1 5.1.9.4 17.5-.4 37-1.7 31.6-2.1 41.9-2.3 98.3-2.1 66.1.2 88.7 1 122.5 4.3 43.5 4.3 69 9 81.8 15 7.1 3.3 6.3 3.4 13.4-2.2 5.7-4.6 12.9-5.8 41.8-6.9 27.8-1 31-1.3 31-2.9 0-3.1-30.9-7.9-76.5-12-48.5-4.3-70.4-5.2-132-5.4-34.1-.2-65.4-.2-69.5 0z"/><path d="M561.5 294.7c-37.1.5-92.3 3.7-111.5 6.3-27.4 3.9-42.2 9.5-44.8 16.9-.6 1.6-2.5 4-4.2 5.3-4.2 3-19.8 21.5-34 40.3-6.3 8.2-13.9 18.1-16.9 21.9-17.4 21.4-21.1 27.5-21.1 34.3 0 3.8.3 4.5 2.7 5.4 3.7 1.4 33.8 2.6 95.8 3.9 112.2 2.3 158.1 4.1 221 8.5 11 .7 27.4 1.6 36.5 2 19.2.7 50.2 3.6 75 7 41.3 5.6 40.5 5.7 46.3-3.5 3.6-5.9 3.7-6.2 3.7-15.7-.1-26.9-3.3-70.7-5.4-72.1-.6-.4-7.4-.5-15-.4l-13.9.3-6.7-4.4c-15.7-10.5-18.7-10.8-22.6-2.3-2 4.3-2.6 7.9-3.4 19.7-.5 7.9-1 15.6-1 17.1v2.8h-24.7c-13.7 0-25.4-.4-26.1-.8-1-.7-.9-1.6.5-4.3 2.6-5.1 2.1-16.2-1.2-29.4-5-20-6.8-21-18.2-10.4l-5.2 4.9h-32.3l-6.3-5c-9.9-7.9-12.4-8.2-16.3-1.7-3.6 5.7-4.5 14.5-2.7 25 .9 5 2.3 11.5 3.1 14.4 1.7 5.9 1.3 7.3-2.1 7.3-1.7 0-2.9-.9-3.8-2.8-2.9-5.6-15.7-44.9-16-48.7l-.2-4 12.7-.5c13.3-.5 14.9-1.1 16.2-5.5.4-1.2-.3-3.9-1.6-6.5l-2.3-4.5-12.1-.3-12.1-.3-.7 4.1c-1 6.1-2.6 3.8-2.6-3.5v-6.4l4.7-.7c6.6-1 60.8.4 85.3 2.2 55.9 4 95.5 10.4 114.3 18.5 7.1 3 10.7 3.4 11.4 1.3.7-2.1-10.4-13-16.4-16.2-14-7.4-49.4-13.5-98.1-16.7-23.2-1.5-90.2-3.6-103.7-3.3-3.8.2-14.6.4-24 .5zm-18 15.3c.3.6-1.2 8.3-3.5 17.3-5.2 20.6-5.9 22.7-7.3 22.7-.7 0-3.9-1.8-7.2-4-3.3-2.2-6.8-4-7.8-4s-3.1 1.3-4.7 2.8c-4.4 4.5-5.5 11.6-5.3 34.4l.2 19.7-3.4.7c-2 .3-4.5.4-5.7.1-1.2-.4-2.7-.2-3.4.4-.6.5-5.5 1.2-10.7 1.6-8.3.5-9.7.4-10.3-1-.7-2 4.7-23.8 9.1-36.7 1.9-5.3 6-15.3 9.1-22.1 3.1-6.8 7.2-16.2 9.1-20.9 1.9-4.7 3.9-8.9 4.4-9.4.5-.5 6.6-1.3 13.6-1.6 20.3-1.1 23.1-1.1 23.8 0zm13.1 19.7c-.4 11.5-.9 21.8-1.3 23-.5 2.1-1.1 2.3-8.4 2.3-6.1 0-7.9-.3-7.9-1.4 0-.8 1.3-5.4 2.9-10.3 1.6-4.8 3.9-13.5 5.1-19.3 3.1-14.5 3.3-15 7.1-15h3.2l-.7 20.7zM468.5 314c.4.6-2 6.8-5.3 13.8-3.3 7-11.7 25.4-18.6 41-16.6 37.3-17 38.1-20.9 39.7-7.2 3-74.7 12.1-74.7 10.1 0-2.2 50.2-73.7 61.6-87.8 3.4-4.2 6.5-8.5 6.8-9.6 1.1-3.4 7.5-4.7 35.1-7.1 13.2-1.2 15.3-1.2 16-.1zM861 305c-2.4 2.4-2.3 3 3.6 19 8.5 23.3 12.5 35.2 12.1 35.7-.5.5-7.5-16.9-11.9-29.7-4.2-12.2-9.2-23-11.1-24.2-1.8-1.1-16.5-.9-21.7.3-2.5.6-5.3 1.7-6.2 2.6-1.9 1.7-2.4 5.8-.9 6.7.4.3 5.7-.6 11.7-1.9 6-1.4 11.7-2.5 12.6-2.5 1.4 0 4.8 4.5 4.8 6.2 0 .2-4.2.3-9.3.3-12.7.1-18.1 2.5-19.8 8.7-.8 3.2-.9 5.6 0 9.8.6 3 1.3 8.9 1.6 13 2.2 37.3 5.8 66.6 10.5 86.5 2.7 11.4 3.4 13 7 14.5l3.1 1.3-3.1 1.8c-2.8 1.7-3 2.3-3 7.8 0 3.2.3 7.3.6 9 1.1 5.4 1.3 5.4 37.4-10.9 11.3-5 21.2-9.8 22.1-10.6.9-.8 3.6-2 6-2.7 3.1-.9 4.8-2.1 5.7-4.1 1.3-2.6 1.5-2.7 3.3-1 3.7 3.3 13.2.6 36.4-10.6 12.4-6 16-8.6 15-11.2-.7-1.9-4.8-3.8-8-3.8-2.3 0-16.3 5.8-33.9 13.9-4.9 2.3-9.4 4-10 3.8-.6-.2 1.1-1.9 3.9-3.8 2.7-1.9 6.2-4.6 7.7-6 1.9-1.9 3.4-2.5 5.3-2.2 3 .6 10.5-3.9 10.5-6.2 0-.9-1.1-4.1-2.4-7.3-2.5-6.1-4.1-12.2-3.2-12.2.3 0 2.2 3.2 4.1 7 3.3 6.6 5.7 9.1 7.2 7.6 2-2-14.7-37-35.8-75.1-4.5-8.3-9.8-17.8-11.6-21.2-5.2-9.5-7.1-10.3-24.2-10.3-12.8 0-14.3.2-16.1 2zm31.6 8.1c4 2.4 4.5 4.3.8 2.9-1.4-.6-6.9-1-12.3-1-7.7 0-10.1.3-11.1 1.5-1.6 1.9-3 .4-3-3.3 0-2.1.2-2.2 11.1-2.2 9.6 0 11.6.3 14.5 2.1zm-12 35.9c4.4 12.9 8.2 21 10 21.7.8.3 1.4 1.7 1.3 3.2-.1 3.5-1.4 6.7-2.2 5.4-1.2-1.9-13.7-38.6-13.7-40.1 0-2.7.8-.8 4.6 9.8zm-15.2.6c.3.8.2 1.2-.4.9-.6-.3-1-1-1-1.6 0-1.4.7-1.1 1.4.7zm8.5 20.9c0 .5-.4.3-.9-.5s-.9-2.2-.9-3c0-1.6 1.7 1.6 1.8 3.5zm5.5 14.5c.5 1.7.4 2-.2 1-.5-.8-1.3-2.6-1.6-4-.5-1.7-.4-2 .2-1 .5.8 1.3 2.6 1.6 4zm17.6 12c0 1.3-.1 1.3-1 0-.5-.8-1-2.2-1-3 0-1.3.1-1.3 1 0 .5.8 1 2.2 1 3zm2.7 15.5c4.5 3 8.5 15.6 6.9 21.9-.5 1.9-1.6 2.8-4.4 3.5-3.7 1-41.3 4.1-49.9 4.1-5.4 0-5.8-.9-6.6-14.6l-.5-10 4.5-2.8c6.9-4.1 10.3-4.6 29.6-4.1 14.4.3 18.4.7 20.4 2z"/><path d="M902.5 306.9c-.7 1.2 2 6.7 9.3 18.6 8.2 13.6 18.1 32.2 26.5 50.1 11.1 23.6 13.5 27.3 21.4 33.2 3.8 2.7 9 6 11.6 7.3l4.8 2.3 9.9-3.3c5.5-1.9 10.5-3.9 11-4.6 1.4-1.7-4.5-4-17.6-7-16.4-3.7-17.2-4.4-27.9-24.4-22-40.9-28.3-51.5-38.1-64.1-4.6-5.8-9.8-9.7-10.9-8.1zM812.9 314.7c-2.3 2.7-1.4 17.6 2.5 45.4 5.1 35.6 8.6 69.9 7.7 74-1.2 5.3-2.9 7.9-9 14.2l-5.6 5.8 2.4 2c1.3 1 3.1 1.9 4.2 1.9 2.2 0 18-4.9 19.4-6.1 1.2-.9.7-7.7-2.4-28.4-1.1-7.7-3.2-23.7-4.6-35.5-1.4-11.8-3.5-27.6-4.7-35-1.1-7.4-2.3-18.9-2.7-25.5-.3-6.6-1-12.6-1.4-13.3-1.1-1.7-4.2-1.5-5.8.5zM290.5 397.1c-1.2 1.9 2.4 4.6 8 5.9 6 1.4 8.1 3 11.4 8.4 2.8 4.5 5.5 4.6 7.6.6 1.5-2.9 1.5-3.3-1.2-8.2-1.9-3.5-3.8-5.5-6-6.5-3.9-1.6-18.9-1.8-19.8-.2zM996.5 415.5c-11.5 3.4-17.5 6.1-17.5 8 0 .9 1.8 4.8 4 8.6 5.3 9.1 6.9 9.4 15.8 3.9 9.6-6 16.2-11.2 16.2-12.7 0-2.3-3.8-9-5.5-9.7-2.5-.9-4.4-.7-13 1.9zM965.5 428.4c-4.4 1.9-11.4 4.9-15.5 6.8-4.1 1.9-11.2 4.9-15.7 6.7-7.2 2.9-8.3 3.6-8.3 5.7 0 3 4 11 7.5 15.3 2.3 2.7 3.3 3.1 7.5 3.1 3.9 0 6.9-1 14.2-4.8 7.9-4 9.3-5.1 9.6-7.4.3-2.2 1.6-3.3 7.9-6.5 4.2-2.2 8.1-4.7 8.7-5.6.8-1.2.3-3.1-1.9-7.7-4.5-9.4-4.7-9.5-14-5.6zM1011 433.5c-.7.8-4.9 3.9-9.5 6.9-4.6 3-8.7 6.1-9.2 6.8-.4.7-.8 7.5-.8 15.1v13.8l5.7-.6c5.6-.7 5.7-.6 10.1 3.4 2.4 2.3 4.9 4.1 5.5 4.1.6 0 2.7-1.9 4.7-4.3l3.7-4.2-.5-18c-.7-20.8-1.6-24.5-5.7-24.5-1.5 0-3.3.7-4 1.5zM326.5 439c-5.6.8-20.5 6.7-20.5 8.1 0 1.7 5 2 25.6 1.7l20.9-.3 7.3-3.8c11.6-6 10.2-6.7-12.1-6.6-8.9.1-18.4.5-21.2.9zM271.1 449c-4.6 1.1-8.6 2.2-8.9 2.4-.2.3-.2 1.3.2 2.2.9 2.4 11.1 1.3 17.4-1.8 8.9-4.4 4.5-5.8-8.7-2.8zM621.6 450.9c-6.1 2.1-11.1 4.2-11.3 4.8-.6 1.7 3 2.2 32.7 3.8 39.7 2.1 54.4 3.9 73.7 8.5 4.6 1.2 5.6 1.1 10.5-.8 2.9-1.2 9.2-3.3 14-4.7 8.7-2.6 10.8-3.9 9.2-5.5-1.5-1.4-55.7-7.3-82.4-9-28.9-1.8-33.9-1.5-46.4 2.9zM909.5 450.4c-7.5 2.4-29 11.4-58.5 24.4-2.5 1.1-5.6 3-6.9 4.2-2.3 2.3-2.4 2.7-1.7 12.3.8 12.2 1.4 14.7 3.5 14.7.9 0 5.2-1.6 9.6-3.6 9.9-4.4 28.8-12.3 42-17.6 11.5-4.6 12.5-5.2 12.5-8.4 0-3.1 2.9-5.6 9-7.8 2.8-1 5.8-2.9 6.6-4.1 1.4-2.1 1.4-2.7-.2-5.7-2.5-4.9-5.3-8.7-7.2-9.7-1.2-.6-4-.2-8.7 1.3z"/><path d="M306 451.2c-13.4 1.2-24.6 4.1-36.9 9.4-19.3 8.4-54.5 26.1-62.6 31.5-14.4 9.5-32 29.6-30.1 34.4.8 2.2 5.1 1.8 17.8-1.4 16.6-4.3 43.4-7 94.9-9.7 6.4-.3 12.1-.9 12.7-1.3.8-.5.9-1.7.2-4.1-.6-1.9-.9-4.4-.9-5.5.1-1.7.2-1.7.6-.3 1.1 4.1 6.2.9 9.7-6 2.1-4 1.7-7.6-.7-8-2.5-.5-5.6 2.4-7.8 7.3-1.4 2.9-1.9 3.4-1.9 1.8 0-6.6 5.4-11.3 13-11.3 2.5 0 5.6.7 6.8 1.6 2.3 1.6 5.2 6.4 5.2 8.6 0 .7-.8-.3-1.9-2.2-2.1-4-6-6.6-8.4-5.7-2.4.9-2.1 5.5.4 9.7 3.8 6.2 7.8 7.7 9.7 3.7 1.8-3.7 1.3 0-.8 6-1.1 3.2-1.7 6-1.2 6.5.4.4 9.3 1.4 19.7 2.3 39.4 3.2 61.1 6.8 95.5 15.6 33 8.4 44 12.2 49.6 17 2.5 2.1 4.9 3.9 5.4 3.9.6 0 3.8-2.4 7.3-5.4 16.3-13.8 34.1-24.7 51.7-31.5 27.3-10.6 60.3-20.9 97-30.1 14.7-3.7 49.8-13.3 55.5-15.2 2.2-.7 4.1-2 4.3-3 .4-2.3-5.1-3.3-34.8-6.3-32.9-3.3-60.4-4.8-72.5-4-15 1-45.4 9.5-73.1 20.6-19.1 7.6-54 26.1-65.3 34.6-6.9 5.2-8.8 2-2.3-3.9 11.8-10.7 49.9-29 89.2-42.8 21.8-7.7 24.2-9 18.6-10.4-3.1-.8-39.2-2.2-87.6-3.6-21.2-.6-46.6-1.5-56.5-2.1-34.6-1.9-61.8-2.3-67.2-1-2.9.7-9.4 3.8-14.5 7-5.1 3.1-13.8 8.1-19.3 11.1-5.5 2.9-12 6.7-14.5 8.5-7.4 5.1-32.7 20.5-33.9 20.5-3.2 0 1.5-4.9 9.4-9.7 2.8-1.6 12.7-7.8 22-13.6 9.4-5.8 21.3-12.9 26.5-15.8 5.4-3.1 9.6-6.2 9.8-7.2.3-1.6-.8-1.7-14-1.6-7.9.1-18.6.6-23.8 1.1zM967.4 459.9c-15.6 6.3-19.9 8.7-26.1 14.5l-4.3 3.9v24.1c0 13.8.4 24.7 1 25.6.8 1.3 1.5 1.2 5.2-.9 2.4-1.3 9-4.9 14.7-8 5.7-3.1 12.5-7.5 15-9.7 4.2-3.8 4.9-5.1 7.3-13.5 3.2-11.1 6.8-29.5 6.8-34.5 0-4.4-1.6-7.4-3.8-7.3-.9 0-8 2.6-15.8 5.8z"/><path d="M233 458c-5.8 1.1-14.3 3-19 4.4-9.9 3-35.2 9.6-46 12.1-22.5 5.2-75.1 23.4-91.5 31.7-9.8 4.9-18.5 11.1-24.5 17.2-3.7 3.8-4.3 5-3.4 6.4 1.9 3 8.2 4.2 26.8 5.3 10 .5 20.8 1.4 24.1 1.9 10.9 1.6 45.8 4.5 55.8 4.5 11.4 0 12.1-.5 15.2-10.4 3.3-10.9 7.4-17.8 15.2-26.1 11.7-12.4 20.2-17.8 59.2-37.5 15.6-7.9 17.2-9 15.6-10.2-2.6-1.8-14.7-1.5-27.5.7zM758 461.1c-3 1.1-8.4 2.7-12 3.5-3.6.9-7.6 2.2-8.9 3.1-2.1 1.4-2.2 1.6-.7 3.1 1.1 1.1 5.8 2 17.1 3.1 17.3 1.6 20.1 1.2 31.1-4.8 8.3-4.5 7.6-5.2-8.5-8.2-12.4-2.2-11.2-2.3-18.1.2zM826 463c-4.1 1-11.6 2.3-16.6 2.8-5 .6-11 1.9-13.5 3-2.4 1.1-12.7 5.3-22.9 9.3-40.4 15.8-83.1 36.8-108.4 53.3-8.5 5.6-15.3 13.7-21.6 25.8-5.2 10-4.9 10.2 12.3 9.4 21.4-1.1 21.5-1.1 30.5-9.8 9.9-9.5 14.7-12.8 36.7-25.1 14-7.7 49.5-25.4 56.6-28 7.6-2.9 49.8-20.6 55.2-23.3 3.7-1.8 3.7-1.8 3.6-7.8-.1-7.5-1-11-2.9-11.3-.8-.1-4.9.7-9 1.7z"/><path d="M718.5 474.1c-4.4.5-14.5 2.7-22.5 4.9s-18.1 5-22.5 6.1c-4.4 1.1-13.6 3.5-20.5 5.4-6.9 1.9-13.3 3.5-14.2 3.5-5.1 0-75.5 23.4-91.5 30.4-13.9 6.1-33.1 18.5-38.5 24.9-7.6 9-9.3 11.6-8.1 12.8 2 2 14.6 2.9 55.3 3.9 22.3.5 48.7 1.3 58.8 1.6 15 .6 18.2.5 18.2-.6 0-.8 2-5.6 4.5-10.7 5.8-11.9 13.6-20.3 27.1-29.3 10.2-6.7 65.2-35 83.7-43 10.1-4.4 11.9-5.7 9.6-7.1-4-2.4-27.5-4.1-39.4-2.8zM912 483.9c-16.8 5.9-38.5 14.6-55 22l-12.5 5.7-.7 8.9c-.9 12.9-1.3 57.4-.4 58.2.8.8 8-2.6 25.1-12.2 7.2-4 22-11.9 33-17.5 27.6-14.2 29.2-15.3 30.6-20.3.7-2.6 1-11.7.7-24.8-.3-18.7-.5-20.9-2.2-22.8-1.1-1.2-2.6-2.1-3.5-2-.9 0-7.7 2.2-15.1 4.8z"/><path d="M996.8 480.5c-5.2 2.9-14.2 17.4-18.8 30.5-3.1 8.6-3.8 9.5-6 7.5-3.2-2.9-6.4-1.7-26.5 9.5-7.1 3.9-28.5 15.3-47.5 25.2-19 10-41.7 22-50.5 26.8-8.8 4.8-18.2 9.9-21 11.3-6.1 3.1-8.8 5.8-8.3 8.8.5 3.5 3.1 4.6 7.5 3 7.3-2.6 133.5-69.8 143.1-76.2 2.4-1.6 4.5-2.9 4.7-2.9.2 0-.1 1.5-.6 3.2-.5 1.8-2.1 10.5-3.4 19.3-1.3 8.8-2.7 17.7-3.1 19.7-.5 3-.3 3.8.8 3.8 1.8 0 3.4-3.4 5.7-12.7 1.7-6.7 1.8-6.8 5.3-7.1 2-.2 4.4-1.2 5.3-2.3 1-1 2.2-1.9 2.6-1.9 2.8 0 5 19.8 5 44.5 0 24.2-1.8 35.8-6.4 41.1-4.2 4.8-9.2.5-11.8-10.1-1.6-6.8-4.6-12.5-6.5-12.5-.8 0-2.9.7-4.7 1.6-3.9 2-34.7 22.5-39.8 26.5-3.6 2.8-6.4 3.8-5.7 2 .2-.5 5.7-4.8 12.3-9.5 26.4-18.9 30.7-23.2 29-28.5-1.4-4.5-3.3-3.5-36.5 19.4-14.6 10-30.5 20.9-35.5 24.2-4.9 3.3-14.4 10-21 15-6.6 4.9-19.2 13.8-28 19.8-19.7 13.3-26.3 18.3-27.5 20.6-1.4 2.5-1.2 10.3.2 11.7.8.8 1.9.8 4.5-.3 1.8-.8 3.3-1.2 3.3-1.1 0 .2-2.4 4.3-5.4 9-3 4.8-5.7 9.2-5.9 9.9-.2.7-.7 1-1 .7-.6-.6-2.7-47.3-2.1-47.9.1-.2 1 .4 1.9 1.3.9.9 1.9 1.6 2.1 1.6 1.4 0 3.3-7.6 3.8-16 .4-5.2 1.4-17.3 2.2-26.9.8-9.6 1.5-24.3 1.5-32.7.1-13.4-.2-15.8-2-20-3.3-7.4-4.6-8.4-10.9-8.4-3.6 0-7.1.7-9.8 2.1-5.3 2.5-19.2 17-25.8 26.8-5.5 8.2-11.6 22.4-11.9 27.6-.2 2.5-1.1 4-3.4 5.7-1.7 1.3-6.2 4.7-10 7.5-9.4 7.3-24.4 14.8-33.4 16.7-25 5.4-78.7 5.8-187 1.5-30.1-1.3-35.4-1-36.1 1.9-.8 3.1 1 6 4.4 7.1 4.7 1.5 23 2.9 47.8 3.6 11.8.3 40.6 1.3 64 2.1 48.6 1.9 85.5 1.4 96.5-1 18.1-4.1 37.2-12.5 48.1-21.2 3.7-3 7-5.2 7.2-4.9.3.2-.8 2.1-2.4 4.1-4.8 6-5.4 7.6-5.4 15.1v7.1l-8.2 7.2c-8.6 7.5-19.8 13.7-29.1 16.1-6.7 1.6-139.6.6-176.7-1.5-41.9-2.3-86.1-3.8-100-3.4-12.5.3-12.5.3-13.8 3-1.5 3.1-.4 6.1 2.6 7.7 8.2 4.4 229.9 12 269.7 9.3 27.9-2 43-7.6 56.7-21.1 7-6.9 7.7-8 8.4-12.6.9-7 5.3-18.7 10.3-27.5 2.3-4.1 4.6-7.9 5.1-8.4 1.3-1.3 8.6-.9 11.8.8 4.2 2.2 6.2 7.3 8.9 23 5.5 32.9 4.9 69.2-1.8 98.6-1.8 8-9.1 30.4-11 34.2-1.5 2.8-6.7 5-10 4.3-6.2-1.4-12.3-12.4-17.1-30.8-1.8-7.2-2.2-12.1-2.7-40.4-.3-17.7-.9-32.5-1.3-32.9-1.7-1.6-7.9 2.7-17.9 12.3-5.8 5.7-11.9 12.1-13.4 14.4-1.6 2.2-4.2 4.7-5.8 5.6-1.7.8-5.1 3.4-7.6 5.8-6.8 6.3-13.6 10.3-22.4 13-12.9 4.1-13.3 4.4-14.3 12.1-1.3 10.8 5.1 40.7 11.5 53.2 4.9 9.6 5.8 8.2-11.2 15-39.4 15.7-63.8 22.2-97.1 25.7-27.4 2.9-77.6 1.6-101-2.5-11.2-2-41-9.8-51.6-13.5-47.5-16.7-88.3-41.4-125-75.9-13.3-12.6-16.2-14.6-21-14.6-5.1 0-43.3-5.5-58.5-8.4-35.8-6.8-76.6-16.2-100.5-23.1-6.9-2-14.1-3.5-16-3.3-3.3.3-3.5.6-3.8 4-.5 5.5 4.9 24.7 10.4 37.2 6.1 14 12.5 23.7 20.2 30.7 12 10.8 21.2 13.9 42 13.9 11.6 0 12.4-.1 12.9-2 .7-2.5 1.4-2.5 6.3 0 2.4 1.2 5.2 4 7.4 7.2 5.9 8.9 28.2 30.7 46.1 44.9 41.7 33.3 56.8 43.1 95 61.9 57.7 28.5 120.9 44 185.5 45.7 39.6 1 79.7-3.6 119.6-13.6 29.9-7.5 55.6-16.9 83.9-30.6 50.4-24.3 101.9-61.6 134.1-97.2 32.9-36.2 53.2-65.6 74.9-108.3 7.7-15.2 20.5-45.6 20.5-48.7 0-4 1.5-4.6 12.6-5.3 7.9-.6 11-1.1 11.9-2.3.8-1.1 2.3-1.4 5.8-1 3.4.4 5.4.1 7.3-1.2 5.7-3.7 10.7-20.3 12.3-41.4 1.4-17 1.4-54.9.1-66.5-1-8.7-1-9 1.6-12.9 6.1-9.3 8.3-20.7 6-31.6-1.8-8.4-3.8-12.1-6.5-12.1-2.8 0-9.6 8.3-13.8 16.7-2 4-3.7 7.3-3.9 7.3-.9 0 2.9-8.5 6.6-14.5 5.2-8.7 9.7-13.5 12.6-13.5 3.1 0 4.8-2.5 4-6.2-1.2-5.8-3.7-7-8.8-4.3zM791 627.1c0 1-.4 1.9-1 1.9-.5 0-1-1.2-1-2.6 0-1.4.4-2.3 1-1.9.6.3 1 1.5 1 2.6zm6.9 19.6c1.3 4.7 1.4 6.3.2 6.3-1 0-1.5-1.3-2.6-6.8-.9-4.5 1.2-4.1 2.4.5zm107.6.9c-3.1 2.4-5.5 3.6-5.5 2.7 0-1 5.1-4.2 6.5-4.2.6 0 .1.7-1 1.5zM872 671c-.8.6-2.4 1.5-3.5 2.1-1.6.8-1.5.6.4-1 1.3-1.2 2.8-2.1 3.5-2.1.6 0 .4.5-.4 1zm-716.9 98c2.1 6.4 6.8 16.2 11 23l2.1 3.5-2.9-3.2c-3.7-4.1-9.5-15.8-12.2-24.7-1.2-3.7-2.1-7.1-2.1-7.5.1-1.6 2.2 3 4.1 8.9zm645.1 15.5l-.9 7-.2-10.6c0-5.8.2-10.9.7-11.3 1.1-1.2 1.4 7.2.4 14.9zm-67.7 26.6c4.3 14.4 5 15.9 11.7 25.9 5.7 8.6 8.2 10.8 14.7 12.5l4.6 1.3-8.2.1-8.2.1-2.6-5.3c-1.4-2.8-4.1-8.1-6-11.7-5.9-11-12.5-32.8-13.1-42.9l-.4-8.6 1.9 8.1c1.1 4.5 3.6 13.8 5.6 20.5zm63.4-2.8c-1.2 4-2.4 6.6-2.6 5.9-.5-1.4 2.4-14.8 3.6-16.7 1.6-2.6 1 4.4-1 10.8zm-4.4 15.7c-2.4 6.9-9.4 19.5-12.3 22.3-1.5 1.5-4.3 2.9-6.2 3.3l-3.5.6 5.2-4.7c7.2-6.3 12.2-14 15.6-23.8.4-.9 1.1-1.7 1.6-1.7.6 0 .4 1.7-.4 4zM392 875.5c0 3.5-.5 4-3.4 2.9-2-.8-2-2.3.1-4.6 2.4-2.7 3.3-2.2 3.3 1.7zm272.7 5.6c1.5.6 2.3 1.3 1.7 1.5-.6.3-2.6-.2-4.5-1-3.9-1.8-1.4-2.2 2.8-.5zm-254.9 3.8c-.7 1.2-1.6 2.1-2.1 2.1-.4 0 0-1.1.9-2.5 2-3 3.1-2.6 1.2.4zm-19.1 2.3c-.3.8-.6.5-.6-.6-.1-1.1.2-1.7.5-1.3.3.3.4 1.2.1 1.9zm39.9 7.5c-2.4 9.9-7.7 26.6-8.2 26.1-.2-.3 1.2-6 3.1-12.9 3.9-13.8 4.2-16.7 2-17.5-2.1-.9-1.9-1.9.8-3.1 3.6-1.7 4.1 0 2.3 7.4zm-51.7-4.5c-1.9 3.5-8.6 13.4-10.4 15.2-2.6 2.6-3.5 1.9-3.5-2.7 0-5 1.4-8 2.3-4.8.9 3.6 3.4 2.3 7.8-3.9 4.3-6.2 5.9-7.7 3.8-3.8zm24.7 3.6c-.8 1.6-2.3 3.5-3.2 4.3-1.6 1.2-1.7 1.2-.9-.1 1.6-2.8 4.6-7 5.1-7 .2 0-.2 1.3-1 2.8zm222-1c4.3 3.4 5.8 9.9 3.2 13.5-1.1 1.5-1.2 1-1-3 .4-5.2-2-9.6-6.2-11.3-2-.8-2-.9-.1-.9 1.1 0 3 .7 4.1 1.7zm-162 6.6c-.3 2.8-1.3 7.6-2.1 10.6l-1.4 5.5.6-8.4c.5-7.2.3-8.6-1.1-9.7-1.6-1.1-1.5-1.3.5-2.8 3.3-2.3 4.2-1 3.5 4.8zm142-2.7c-1.3 2.4-1.5 2.5-1.6.7 0-1.1.5-2.5 1.2-3.2 1.9-1.9 2.1-.6.4 2.5zm43.7 14c1.5 2.8 4.1 6.3 5.9 7.7 2.3 1.8 2.8 2.6 1.6 2.6-4.5 0-12.2-12.1-13.3-21l-.5-4.5 1.8 5c1.1 2.7 3.1 7.3 4.5 10.2zm25.6-11.1c2.3 4.5 2.6 12.7.7 14.3-1.4 1.2-1.5 1-.5-1.8 1.6-4.7.3-9.7-3.1-12.3-2.2-1.6-2.7-2.4-1.8-3 1.9-1.2 3.2-.5 4.7 2.8zm-91.5-.5c9 7.1 11.2 29.2 3.6 36.4-1.7 1.6-3 2.5-3 1.9 0-.5 1.1-1.9 2.5-3.2 3-2.9 3.9-7.3 3.3-16.1-.6-8-4.6-16.4-9-18.7-1.5-.8-2.8-1.7-2.8-1.9 0-1.2 3-.3 5.4 1.6zm-195.7 2.1c-.3.8-.6.5-.6-.6-.1-1.1.2-1.7.5-1.3.3.3.4 1.2.1 1.9zm100.6-.4c-1 .9-2.6 2.9-3.5 4.2-.9 1.4-1.7 2-1.7 1.3-.1-1.4 4.7-7.3 6-7.3.5 0 .1.8-.8 1.8zm76.2 3.5c-1.8 4.3-1.9 17.1-.2 23.7.9 3.4 2.2 5.2 5.5 7.7 2.4 1.8 3.7 3.3 2.9 3.3-2.4 0-6.6-3.9-9-8.3-3-5.7-3.2-23.7-.4-28.1 2.5-3.7 3.1-2.8 1.2 1.7zm-175.9 3.1c.7.8 1.9 1.6 2.6 1.9 1 .3.7 1.2-.8 3.2-3.8 5.3-6.2 3.8-5-3 .8-3.9 1.1-4.1 3.2-2.1zm222.4 9.1c-1.8 2.2-4 1.8-4-.8 0-1.2-.3-3.3-.7-4.7-.6-2.4-.5-2.4 2.6.8 2.7 2.7 3.1 3.5 2.1 4.7zm13.9-3.3c.5 1.3 2.7 4.8 5 7.8 2.2 3 4.1 5.9 4.1 6.4 0 1.1.3 1.5-6.4-6.7-3.1-3.6-6-6-8-6.6l-3.1-.8 2.5-1.1c3.8-1.6 5-1.4 5.9 1zm-139.9 1c1.7 2.1 1.7 2.5.2 5-2.4 4-3.2 3.5-3.2-2.2 0-2.8.3-5 .6-5s1.4 1 2.4 2.2zm18.1 2.7c2.4 2.5 2.9 3.8 2.9 7.8-.1 6.5-3.1 13-6.5 13.9-4.2 1-12.3-.1-14.5-2.1-3-2.7-1.7-2.9 3-.5 13.3 6.8 23.3-9.9 11.8-19.5-2.1-1.8-2.5-2.5-1.3-2.5.9 0 3 1.3 4.6 2.9zm34.7 3.5c.5 2.5-1.2 3.9-3.7 3.1-2-.6-2.8-3.4-1.4-4.9 1.3-1.3 4.8-.1 5.1 1.8zM1022.5 490.1c-4.9 4.5-10 8.8-11.2 9.6-2.7 1.8-3.1 6.4-.8 8.3 2.3 1.9 6.7.3 14.4-5 8.3-5.9 12.4-10.9 12.4-15.2 0-3-2.3-5.8-4.7-5.8-.6 0-5.1 3.7-10.1 8.1z"/><path d="M822 489.4c-6.9 2.9-18 7.8-24.8 10.9-6.7 3-13.9 6.1-16 6.8-2 .6-6.6 2.6-10.2 4.4-3.6 1.8-9.4 4.5-12.8 5.9-6.2 2.4-30.3 15.5-48.9 26.3-13.8 8.1-22 15-20 16.9.3.3 6.4.9 13.6 1.3 10.6.6 13.4 1 15 2.6 2.3 2 2.7 5.6 1 10.4-.8 2.4-.8 3.5.1 4.6 1.6 1.9 2.5 1.4 18-11.1 10.9-8.7 44.2-30.5 60.9-39.7 4.1-2.3 15-7.7 24.1-11.9l16.5-7.8-.2-9.2c-.2-11.2-1-15.8-2.6-15.7-.7 0-6.8 2.4-13.7 5.3zM1032.6 504c-2.2 1.7-7 5-10.6 7.5-3.7 2.5-7.7 5.6-9 7-2 2.1-2.2 2.8-1.2 5 3.2 7.1 10.6 4.8 23.2-7.3 5.9-5.7 8-8.4 8-10.3 0-5.6-4.5-6.4-10.4-1.9zM308.3 506.2c-7.7 3.7.5 10.4 9.3 7.6 5.1-1.7 5.5-4.2 1.2-6.8-3.6-2.2-7.1-2.5-10.5-.8z"/><path d="M829.5 517.9c-9.9 3.6-22.6 10.1-36.7 18.7-31.6 19.4-42.4 26.9-57.2 39.8-4.9 4.3-10.8 8.6-13.2 9.6-2.3 1-4.5 2.7-4.8 3.7-.3 1-1.3 8.2-2.1 15.9-3.1 28.7-7.5 36.6-22.7 41.7-8.9 2.9-31.2 3.2-122.4 1.7-41.4-.7-76.2-.9-77.3-.5-1.9.6-2.2 1.3-1.9 4.8l.3 4.2 8 .6c12.3 1 106.9 3.1 145.5 3.2 31.8.1 35.3-.1 45-2.1 19.4-4 33.3-9.5 43.7-17.3 5.8-4.4 5.5-3.5 14.3-34.9 6.3-22.7 16.3-41.7 24.7-47 8-5.1 22.7-4.8 30.5.6 5.1 3.6 9.1 9.9 12.9 20.5 2.5 7.1 3.6 9 5.5 9.5 3 .8 12.9-3.7 14.4-6.5.6-1.2 1.5-7.8 2-14.9 1.1-14.3 1.3-49.2.4-51.6-.8-2-2.6-1.9-8.9.3zM300.3 531.4c-7 3.1-10.4 13.5-6.8 20.6 2 3.9 6.2 7 9.4 7 3.9 0 11.4-4.1 12.8-7 1.5-3 1.7-12.4.3-15-2.7-5-10.6-7.8-15.7-5.6zm7.5 11.9c.4 3.5-1.3 5.7-4.4 5.7-3.1 0-4.1-3.4-1.9-6.6 2.2-3.5 5.9-2.9 6.3.9zM956 539.4c-15.4 8.7-18.4 10.9-20.2 14.6-3.1 6.5-6.3 45-3.7 45 .6 0 5.7-3.3 11.3-7.3 5.5-4 12.5-8.8 15.4-10.6l5.2-3.3v-7.7c0-4.2.7-10.8 1.5-14.6 3.6-16.6 3.8-21.5 1.1-21.5-.6.1-5.4 2.5-10.6 5.4zM182.3 555.8c-3 1.9-4.3 8.7-5.8 29.1-1.1 14.8-1.3 21.6-.6 23 .7 1.3.7 2.8.1 4.8-1.3 3.5 1.3 38.6 3.1 44.5 2.2 6.9 3.1 7.2 21.9 7.8 16 .5 20.4 1.2 16.6 2.6-1.9.7-17-.1-20.3-1.1-3.8-1.2-4.6 2.3-5.1 22.5-.6 22.4.1 25.4 5.6 27 4.9 1.3 45.7 5 135.7 12.1 70 5.5 71.9 5.5 72.9 1.5 2.9-11.5 3.4-44.9.7-46.6-1.8-1.1-5.9-1.6-38.1-4.5-43.5-4.1-36.1-4.5 18.7-1 19.1 1.2 21.6 1.6 24.4 3.6 2.7 1.9 4.7 2.2 16.8 2.6 7.5.2 16.3.1 19.6-.4l5.9-.8 1.3-4.4c.7-2.5 1.7-8.3 2.3-13 .5-4.7 1.7-12 2.5-16.1 1.4-7.1 2.9-28 4.2-61.2.5-13.6.4-14.7-1.4-15.6-3.5-1.9-50.8-4.8-126.8-7.7-20.3-.8-58.6-3-85-4.9-61.9-4.4-67.8-4.8-69.2-3.8zM301 592.5c0 .8-.9 1.5-2 1.5s-2-.7-2-1.5.9-1.5 2-1.5 2 .7 2 1.5zm0 28c0 .8-.9 1.5-2 1.5s-2-.7-2-1.5.9-1.5 2-1.5 2 .7 2 1.5zm1.6 27.6c.3.6.1 1.6-.4 2.1-1.3 1.3-4.5-.8-3.6-2.3.7-1.2 3.1-1.1 4 .2zm-45.5 20.4c19.6 1.5 41.2 2.1 42.7 1.2.4-.3 3.3 0 6.4.8 3.1.7 9.3 1.6 13.7 2 4.5.4 8.4 1.2 8.8 1.7.4.7-2 .9-7.3.5-7.1-.6-24.2-1.6-76.4-4.6-16.5-1-20-1.5-20-3.2 0-.6 2.7-.7 6.3-.4 3.4.3 15 1.2 25.8 2zm-.1 14.4c0 1.4-1.8 2.3-3 1.6-.6-.4-.8-1.1-.5-1.6.8-1.2 3.5-1.2 3.5 0zm60.5 4.1c.3.5.1 1-.4 1-.6 0-1.1-.5-1.1-1 0-.6.2-1 .4-1 .3 0 .8.4 1.1 1zm23.5 13.9c0 .6-.4 1.3-1 1.6-.5.3-1-.1-1-.9 0-.9.5-1.6 1-1.6.6 0 1 .4 1 .9zm-92.2 5.8c-.5 2.5-2.8 2.8-2.8.4 0-1.2.6-2.1 1.6-2.1.9 0 1.4.7 1.2 1.7zm16.8.4c.3.6.1 1.6-.5 2.2-.9.9-1.4.8-2.1-.3-.9-1.5-.4-3 1-3 .5 0 1.2.5 1.6 1.1zM909 563.6c-9.1 4.7-23.3 12.4-31.7 17-8.3 4.6-16.3 8.8-17.8 9.4-3.3 1.2-13.5 8.1-15.7 10.7-1.4 1.5-2 5.9-3.3 23.4-.8 11.7-1.5 25.1-1.5 29.6 0 12.6-1.1 13 35.6-12.7 41.2-28.8 48.9-34.5 50.1-37.1 1.3-2.9 3.3-23.1 3.6-37.9.2-8.6-.1-10.5-1.3-10.7-.8-.2-8.9 3.6-18 8.3z"/><path d="M779.6 561.4c-5.5 2.1-9.1 5.9-15.3 16.4-6.5 11-10.2 20.8-14.9 39-3.6 14-3.9 16.8-2.4 19.2 1.4 2.3 2.9.2 5.7-8.2 3.8-11.4 7.6-17.6 18.6-30.4 12.3-14.3 17.6-17.9 27.5-19 7.8-.8 10.2-1.8 10.2-4.2 0-2.3-7-9.6-11.2-11.8-4.4-2.3-13.4-2.8-18.2-1zM830 606.9c-9.5 2.9-11.6 5.6-12.9 16.6-3.2 26.2-4 51.5-1.7 53.4 2 1.7 17.3-6 18.5-9.2 2.2-5.8 3.9-48.1 2.3-57.2-.8-4.2-1.9-4.9-6.2-3.6zM43.8 609.1c-2.1 1.2-2.4 4.2-.5 5.7.6.5 3.9 1.3 7.2 1.7 3.3.4 16.6 2.4 29.5 4.5 37.3 6.1 78.4 11.2 82.1 10.3 2.2-.6 2.5-3.5.6-5.1C160.9 624.7 56 608 48.8 608c-1.8 0-4.1.5-5 1.1zM9.2 621.2c-3.7 3.7 1.8 11.5 10.4 14.8 8 2.9 19.2 4.6 51.9 7.5 16 1.5 36.4 3.5 45.5 4.6 21.6 2.5 33.2 3.2 34.9 2.1.7-.5 1.5-3 1.8-5.5.5-4.2.4-4.6-1.8-5.1-1.3-.3-18.8-1.7-38.9-3.1-62.7-4.5-86.1-7.8-94.9-13.4-5.2-3.4-7-3.8-8.9-1.9zM3.4 655.3c-1.5 3.1-1.5 3.6 0 6.5 2.9 5.6 14.4 10.8 30 13.7 7.8 1.4 35.2 4.4 113.9 12.2 40.5 4 41.7 3.9 41.7-1.7 0-6.3-1.3-6.6-71.5-14.4-91-10.3-90.1-10.1-100.2-15.6-9.1-5-11.8-5.1-13.9-.7zM60.9 688.6c-1.9 2.3 1.2 7.4 8.2 13.8 18.2 16.4 51.5 27.3 130.1 42.6 47.2 9.1 96.6 16 137.3 19 15.4 1.1 34.5 2.8 42.5 3.7 11.7 1.3 29.9 1.7 95.5 2 115 .7 149.7-1.2 187-10.1 21.3-5.2 31.3-10 37.6-18.3 6.3-8.4 3.6-9.8-16.2-8.4-8.2.6-20.5 1.1-27.3 1.1h-12.4l-5.4 6.8c-3.4 4.2-7.3 7.7-10.4 9.4-7.5 4-20.8 7.5-40.3 10.5l-17.6 2.7H506c-57.9-.1-67-.3-103.5-2.7-49.1-3.3-73.8-5.3-87.5-7.2-5.8-.8-19-2.4-29.5-3.5-65.3-7.2-124.3-17.6-153-26.9-29-9.4-41-15.2-51.9-25.1-11.8-10.8-16.6-13.1-19.7-9.4z"/><path d="M87.3 689.7c-.7.2-1.3 1.7-1.3 3.2 0 3.6 5.1 8.4 11.5 10.9 2.8 1.1 12 5.4 20.5 9.5 26.6 13 50 18.4 123 28.6 35.4 5 43.7 5.9 87 10.1 81.7 7.8 115.7 9.4 182.8 8.7 41.5-.4 51-.8 64-2.6 29.8-3.9 41.8-6.9 50.5-12.3 5-3.2 6.7-5.4 6.7-8.7 0-2.7-1.6-2.9-32.5-3.6-38.1-.8-79.4-2.4-92-3.5-20.1-1.8-90.1-4.1-92.9-3-2 .7-2.6 1.6-2.6 3.9 0 5.1-.9 6.1-5.3 6.1-3.8 0-31.4-2.2-87.7-7-37.4-3.2-69.5-5.9-97.5-8-14.3-1.1-27.5-2.3-29.2-2.6l-3.3-.5v-6.3c0-3.9-.5-6.7-1.2-7.4-.7-.5-5.3-1.3-10.3-1.7-4.9-.4-14.2-1.7-20.5-3-6.3-1.3-19.4-3.5-29-5-9.6-1.5-22.2-3.5-27.9-4.6-11.2-2-10.9-2-12.8-1.2z"/></svg>