<?xml version="1.0" standalone="no"?>
<!DOCTYPE svg PUBLIC "-//W3C//DTD SVG 20010904//EN"
 "http://www.w3.org/TR/2001/REC-SVG-20010904/DTD/svg10.dtd">
<svg version="1.0" xmlns="http://www.w3.org/2000/svg"
 width="1048.000000pt" height="1048.000000pt" viewBox="0 0 1048.000000 1048.000000"
 preserveAspectRatio="xMidYMid meet">
<metadata>
Created by potrace 1.11, written by Peter Selinger 2001-2013
</metadata>
<g transform="translate(0.000000,1048.000000) scale(0.100000,-0.100000)"
fill="#000000" stroke="none">
<path d="M5045 9739 c-811 -38 -1561 -290 -2282 -765 -390 -258 -851 -708
-1141 -1117 -268 -377 -499 -843 -625 -1262 -93 -306 -150 -585 -177 -860 -24
-251 -24 -225 5 -225 15 0 153 43 308 95 155 52 366 117 467 145 193 54 230
69 230 98 0 38 140 576 167 640 216 523 435 866 778 1221 256 264 503 456 825
640 224 128 534 249 840 326 284 71 493 95 830 95 326 0 549 -25 815 -91 635
-157 1132 -433 1618 -898 l87 -84 193 -13 c387 -27 737 -78 868 -129 114 -44
181 -78 257 -132 34 -24 67 -43 73 -41 28 9 -175 343 -356 583 -204 272 -549
621 -826 837 -650 506 -1421 821 -2229 913 -136 15 -465 36 -530 33 -19 -1
-107 -5 -195 -9z m263 -282 c12 -12 49 -83 82 -156 33 -74 65 -140 72 -148 18
-23 25 6 33 148 8 128 18 175 35 164 6 -4 10 -66 9 -158 -1 -169 -10 -262 -26
-278 -28 -28 -51 2 -118 149 -67 148 -90 190 -100 180 -3 -3 -10 -72 -16 -154
-17 -252 -45 -193 -37 79 4 142 14 197 37 197 4 0 17 -10 29 -23z m-223 -6 c3
-6 -16 -13 -42 -16 -27 -4 -68 -10 -93 -14 l-45 -6 -3 -59 c-4 -81 2 -86 109
-86 49 0 89 -4 89 -9 0 -13 -24 -20 -104 -31 -38 -6 -74 -16 -78 -23 -11 -18
-10 -105 2 -128 10 -17 22 -19 111 -19 74 0 100 -3 97 -12 -7 -20 -69 -30
-157 -25 -52 3 -87 10 -91 18 -10 15 -21 155 -23 299 l-2 105 35 6 c57 10 188
10 195 0z m783 -23 c58 -17 58 -32 -1 -36 -59 -4 -58 0 -86 -202 -26 -181 -28
-190 -47 -190 -18 0 -18 8 5 210 10 91 16 170 14 177 -3 7 -27 19 -54 28 -27
9 -49 21 -49 27 0 14 159 4 218 -14z m198 -65 c-19 -114 -19 -138 1 -155 25
-23 158 -46 181 -32 9 6 26 44 37 84 19 69 36 93 49 71 6 -10 1 -41 -49 -261
-14 -63 -28 -125 -30 -137 -3 -13 -13 -23 -22 -23 -16 0 -16 5 3 151 l6 46
-43 18 c-24 9 -72 20 -105 22 l-62 6 -15 -49 c-9 -27 -18 -63 -22 -81 -3 -17
-13 -37 -21 -44 -20 -17 -19 32 6 161 33 168 60 260 77 260 12 0 14 -8 9 -37z
m-1766 -40 l24 -17 -24 -7 c-14 -4 -53 -7 -88 -8 -56 -1 -67 -4 -93 -30 -34
-34 -36 -50 -11 -81 17 -20 31 -24 131 -29 104 -7 114 -9 139 -34 23 -23 27
-36 26 -82 0 -62 -24 -97 -81 -121 -66 -28 -193 -12 -213 26 -15 29 2 31 64 9
48 -16 63 -18 98 -8 54 14 100 60 96 95 -6 49 -45 67 -165 75 -99 6 -108 8
-130 33 -45 53 -17 138 57 177 45 25 136 25 170 2z m2178 -191 c-67 -197 -67
-195 -25 -237 30 -30 41 -35 84 -35 26 0 53 4 60 8 12 8 49 91 98 219 14 40
35 83 46 95 l18 23 1 -22 c1 -66 -102 -319 -141 -346 -29 -21 -107 -22 -152
-3 -45 18 -87 71 -87 107 0 36 53 203 91 288 23 50 32 62 41 53 9 -9 2 -43
-34 -150z m-2577 67 c32 -17 11 -29 -51 -29 -68 0 -100 -10 -129 -41 -27 -29
-27 -49 0 -83 l21 -27 112 7 111 7 38 -42 c41 -46 47 -82 22 -131 -35 -68
-183 -112 -253 -76 -59 31 -41 43 58 38 l90 -4 35 35 c40 40 45 77 15 107 -18
18 -33 20 -134 20 -110 0 -116 1 -146 27 -30 25 -32 30 -28 75 6 56 42 103 93
117 43 13 123 13 146 0z m3112 -100 c46 -13 127 -87 127 -117 0 -32 -10 -28
-57 22 -66 70 -144 84 -179 31 -23 -35 -11 -57 66 -126 111 -98 122 -148 49
-214 -33 -29 -47 -35 -85 -35 -74 0 -139 42 -176 113 -19 38 -19 67 1 67 6 0
18 -15 27 -32 40 -81 112 -120 179 -98 35 12 45 26 45 68 0 19 -20 45 -74 99
-81 79 -91 98 -82 147 7 36 28 59 66 75 33 13 48 13 93 0z m-3555 -111 c165
-146 271 -263 254 -280 -8 -8 -22 -2 -49 21 -45 37 -69 39 -131 7 -63 -32 -70
-42 -74 -106 -4 -75 -23 -75 -37 2 -26 144 -51 320 -51 358 0 33 3 40 20 40
11 0 42 -19 68 -42z m3842 -48 c0 -34 -188 -370 -207 -370 -7 0 -13 5 -13 10
0 21 134 272 182 343 20 27 38 36 38 17z m-4185 -275 c55 -82 107 -153 115
-158 11 -7 38 1 90 27 44 21 76 32 79 25 4 -12 -12 -25 -93 -80 -33 -21 -67
-39 -77 -39 -10 0 -29 15 -42 33 -42 55 -197 319 -197 334 0 34 30 -1 125
-142z m4428 100 c-4 -89 -93 -405 -114 -405 -5 0 -9 24 -9 54 0 30 -3 62 -7
71 -3 10 -33 35 -66 55 l-60 38 -50 -34 c-54 -37 -67 -41 -67 -20 0 33 320
287 355 283 17 -2 20 -9 18 -42z m-4625 -112 c2 -9 -9 -13 -40 -13 -89 0 -156
-65 -143 -139 8 -42 48 -101 110 -161 41 -40 51 -45 91 -45 40 0 50 5 80 37
30 33 34 44 34 93 0 56 11 70 30 36 16 -31 12 -93 -10 -128 -23 -38 -49 -57
-109 -78 -42 -14 -47 -14 -87 6 -52 25 -126 104 -160 171 -43 86 -23 174 50
219 36 22 146 23 154 2z m4936 -66 c65 -40 119 -141 80 -154 -5 -2 -20 14 -32
36 -29 51 -86 101 -116 101 -27 0 -76 -35 -76 -55 0 -8 27 -56 60 -106 73
-111 77 -144 27 -194 -42 -42 -77 -51 -129 -36 -75 23 -165 144 -145 195 10
26 36 18 43 -11 12 -55 27 -84 61 -113 42 -38 102 -41 134 -9 31 31 20 75 -36
154 -54 76 -67 130 -41 170 33 50 108 59 170 22z m233 -206 c69 -56 148 -139
139 -148 -4 -4 -17 -1 -29 7 -12 7 -35 21 -50 29 l-29 16 -86 -91 c-48 -49
-111 -112 -139 -138 -44 -40 -53 -45 -53 -29 0 12 47 73 111 144 61 68 115
132 120 141 7 13 2 25 -21 51 -30 34 -38 57 -21 57 5 0 31 -17 58 -39z m-5367
-123 c0 -16 -87 -98 -105 -98 -28 0 -15 28 31 69 47 41 74 52 74 29z m-350
-32 c0 -7 -20 -21 -45 -31 -70 -26 -115 -97 -96 -149 16 -41 62 -35 172 23 78
40 99 47 123 40 65 -18 107 -91 86 -153 -26 -80 -125 -152 -196 -144 -47 5
-36 31 19 45 61 15 93 35 117 76 25 41 25 68 -1 101 -29 37 -59 33 -156 -19
-101 -55 -137 -58 -179 -14 -23 24 -29 39 -29 74 0 77 84 165 157 165 17 0 28
-5 28 -14z"/>
<path d="M3417 8964 c-3 -5 -2 -41 3 -79 5 -39 9 -75 10 -81 0 -7 8 -22 19
-35 l18 -23 47 28 c25 15 46 33 46 40 0 20 -135 162 -143 150z"/>
<path d="M7419 8694 c-30 -26 -60 -56 -68 -67 -13 -18 -11 -23 17 -49 42 -36
75 -37 91 0 20 41 41 114 41 140 0 33 -20 27 -81 -24z"/>
<path d="M6040 7684 c-30 -2 -194 -11 -365 -19 -416 -21 -661 -40 -894 -70
-296 -38 -268 -46 69 -20 327 26 871 35 1445 25 478 -8 559 -12 825 -40 523
-53 721 -90 854 -157 l48 -25 40 33 c86 68 172 84 511 95 125 4 227 10 227 15
0 18 -287 65 -570 94 -85 8 -321 27 -525 41 -329 24 -438 27 -990 29 -341 1
-645 1 -675 -1z"/>
<path d="M5225 7510 c-404 -14 -701 -44 -925 -91 -117 -25 -166 -47 -205 -89
l-30 -32 60 5 c33 3 110 12 170 21 126 17 594 51 925 66 303 14 1346 15 1535
1 573 -43 979 -110 1189 -198 32 -13 60 -22 63 -19 21 21 -76 120 -158 162
-125 63 -521 127 -993 160 -260 18 -1276 27 -1631 14z"/>
<path d="M8653 7443 c-67 -9 -66 -26 22 -258 68 -182 115 -325 115 -350 -1
-43 -95 174 -164 380 -15 44 -41 107 -59 140 l-32 60 -110 0 c-129 -1 -168
-14 -173 -59 -3 -23 -1 -28 13 -22 32 12 237 46 246 40 22 -13 98 -209 86
-221 -3 -3 -19 25 -36 61 -39 87 -54 94 -167 73 -117 -22 -134 -38 -134 -126
0 -52 4 -69 21 -87 19 -20 20 -26 8 -58 -11 -29 -9 -77 10 -293 32 -377 84
-667 127 -710 28 -28 58 -29 259 -8 168 17 168 17 161 6 -6 -10 -39 -15 -239
-41 -81 -11 -156 -24 -167 -30 -17 -9 -20 -21 -20 -73 0 -87 7 -107 37 -107
13 0 83 27 155 61 73 33 179 81 237 106 128 54 158 71 164 93 3 10 23 22 51
29 33 8 50 18 58 36 l11 24 33 -25 32 -25 89 30 c105 35 328 139 363 170 l25
21 -24 20 c-43 37 -77 27 -348 -99 -72 -33 -139 -61 -148 -61 -33 0 -9 35 50
75 38 26 61 49 63 63 4 29 -22 109 -64 196 -38 76 -40 86 -21 86 22 0 55 -43
62 -81 4 -20 23 -69 43 -110 42 -84 63 -95 107 -57 l27 24 -30 70 c-16 38 -37
92 -45 119 -30 103 -337 708 -383 755 -26 26 -51 31 -174 34 -91 1 -93 -3 -57
-114 l23 -75 45 0 c25 0 53 -6 62 -14 36 -29 58 -137 67 -326 7 -164 10 -184
33 -225 27 -50 42 -110 27 -110 -21 0 -52 82 -263 690 -45 132 -71 219 -65
225 5 6 57 11 116 13 131 4 159 -8 213 -88 48 -72 292 -531 390 -737 77 -160
99 -194 99 -154 0 49 -200 450 -422 847 -111 198 -110 197 -263 200 -60 1
-124 0 -142 -3z m54 -558 c55 -135 61 -159 41 -153 -7 3 -26 38 -41 79 -51
137 -58 148 -93 161 -19 7 -34 15 -34 18 0 8 43 28 59 26 9 0 36 -53 68 -131z
m78 -207 c58 -131 90 -238 66 -223 -9 5 -101 230 -101 247 0 20 22 5 35 -24z
m166 -298 c64 -12 94 -38 113 -99 37 -116 29 -172 -26 -189 -67 -22 -499 -51
-551 -38 -33 8 -44 43 -50 163 l-6 92 62 40 62 39 171 1 c94 1 195 -4 225 -9z
m15 -365 c-26 -19 -56 -19 -56 0 0 11 11 15 38 15 35 -1 36 -2 18 -15z"/>
<path d="M9030 7405 c0 -11 44 -91 109 -199 82 -135 159 -280 237 -446 107
-231 150 -302 207 -346 75 -58 154 -104 178 -104 22 0 144 41 181 61 29 16 17
22 -130 58 -67 17 -138 39 -157 48 -43 21 -77 72 -205 313 -159 301 -265 473
-344 558 -37 41 -76 70 -76 57z"/>
<path d="M5625 7383 c-11 -3 -23 -8 -28 -12 -4 -4 -13 -103 -21 -220 -8 -120
-19 -218 -25 -224 -6 -6 -39 -11 -73 -11 -69 0 -100 12 -221 90 -37 24 -73 44
-81 44 -21 0 -53 -42 -71 -95 -21 -65 -29 -233 -17 -360 6 -55 7 -103 3 -108
-10 -10 -228 -37 -298 -37 -38 0 -55 4 -59 15 -11 27 18 159 66 305 59 181 75
220 162 402 38 81 68 155 66 165 -3 15 -16 18 -81 21 -119 4 -217 -12 -239
-40 -25 -32 -109 -207 -241 -502 -61 -138 -132 -291 -157 -341 -52 -103 -33
-94 -250 -125 -80 -12 -220 -32 -313 -46 -160 -23 -267 -30 -267 -18 0 32 433
661 598 867 39 50 72 97 72 105 0 11 -9 13 -40 9 -69 -9 -111 -40 -198 -143
-88 -104 -381 -475 -496 -629 -108 -143 -137 -215 -100 -246 21 -17 169 -25
684 -38 1599 -42 1855 -50 2320 -81 162 -11 383 -24 490 -30 201 -11 648 -46
710 -56 19 -3 69 -12 110 -20 134 -25 328 -44 354 -34 14 5 43 36 65 69 37 54
41 66 41 123 0 72 -28 558 -38 663 l-7 70 -150 5 -150 5 -80 51 c-144 92 -153
92 -191 10 -20 -43 -26 -80 -34 -197 -5 -79 -10 -157 -10 -173 l0 -28 -275 4
c-151 2 -277 7 -280 10 -4 3 6 25 22 49 24 37 28 51 26 108 -1 76 -35 236 -63
298 -26 60 -51 57 -127 -12 l-61 -55 -166 0 -166 0 -62 50 c-96 77 -118 77
-161 -4 -39 -76 -29 -185 39 -418 5 -16 -2 -18 -44 -18 l-50 0 -26 73 c-14 39
-54 160 -90 267 l-64 195 -106 6 c-129 8 -140 14 -133 82 6 69 42 103 122 117
88 16 101 21 84 30 -18 10 -197 20 -224 13z"/>
<path d="M5450 7344 c-20 -52 -61 -202 -74 -274 -14 -73 -10 -104 11 -78 23
28 93 294 93 354 0 32 -18 31 -30 -2z"/>
<path d="M8136 7331 c-24 -39 -16 -140 49 -611 14 -96 31 -240 40 -320 8 -80
17 -163 19 -185 9 -81 -10 -131 -82 -207 -64 -67 -66 -71 -47 -85 23 -16 53
-13 158 18 37 11 71 27 74 35 3 8 -8 99 -25 202 -18 103 -39 257 -47 342 -16
162 -60 477 -75 545 -5 22 -10 79 -10 126 0 113 -7 149 -31 149 -10 0 -20 -4
-23 -9z"/>
<path d="M5725 7311 c-32 -14 -64 -54 -71 -89 -6 -28 -3 -33 22 -43 41 -15
451 -8 482 9 27 15 29 58 7 103 l-16 30 -112 -3 -112 -3 -5 -40 c-3 -27 -10
-40 -20 -40 -8 0 -24 18 -36 40 -19 38 -23 40 -70 42 -27 1 -58 -2 -69 -6z"/>
<path d="M8812 7098 c-17 -17 -15 -35 17 -129 33 -97 61 -159 73 -159 28 0 10
165 -27 244 -20 43 -46 61 -63 44z"/>
<path d="M2921 6511 c-23 -15 -4 -29 67 -50 56 -17 74 -28 108 -67 29 -34 45
-46 57 -41 41 16 3 124 -51 145 -38 15 -164 24 -181 13z"/>
<path d="M9985 6320 c-85 -22 -155 -49 -173 -65 -11 -10 -8 -23 16 -71 16 -33
40 -68 52 -79 l21 -19 62 32 c34 18 88 51 120 75 52 38 57 45 52 72 -6 34 -42
75 -64 74 -9 0 -47 -8 -86 -19z"/>
<path d="M9640 6181 c-199 -91 -268 -121 -323 -141 -51 -19 -57 -24 -51 -43
11 -36 45 -100 71 -134 21 -29 30 -33 69 -33 84 0 229 75 236 122 2 17 23 33
83 64 44 22 81 47 83 55 3 18 -59 142 -73 146 -5 1 -48 -15 -95 -36z"/>
<path d="M10103 6126 c-15 -13 -61 -44 -100 -70 -40 -25 -74 -52 -75 -58 -1
-7 -2 -70 -2 -140 l-1 -127 56 6 c56 6 57 5 98 -36 22 -22 45 -41 50 -41 5 0
24 19 43 43 l34 42 -7 182 c-4 100 -13 191 -19 202 -14 28 -42 26 -77 -3z"/>
<path d="M3270 6080 c-47 -8 -144 -40 -176 -58 -17 -10 -16 -11 8 -17 15 -4
114 -5 220 -3 l193 3 68 32 c37 18 67 37 67 42 0 13 -309 13 -380 1z"/>
<path d="M2735 5984 c-33 -8 -70 -16 -82 -19 -39 -9 -25 -25 22 -25 44 0 150
33 160 51 8 12 -28 10 -100 -7z"/>
<path d="M6215 5963 c-93 -31 -106 -38 -85 -44 14 -4 172 -17 351 -29 355 -22
543 -42 629 -66 93 -27 107 -27 162 -5 29 11 92 32 141 46 48 14 87 30 87 35
0 6 -3 10 -7 10 -5 0 -102 11 -218 25 -282 32 -563 54 -775 60 l-175 4 -110
-36z"/>
<path d="M9075 5960 c-27 -9 -151 -60 -275 -113 -394 -167 -370 -151 -370
-241 0 -92 11 -167 26 -173 7 -2 70 20 141 50 297 128 413 177 437 183 30 7
51 31 60 67 5 22 21 35 81 64 88 44 93 60 45 136 -26 41 -34 47 -62 46 -18 0
-55 -9 -83 -19z"/>
<path d="M3063 5959 c-181 -13 -250 -36 -585 -195 -334 -158 -457 -232 -564
-339 -62 -61 -144 -176 -144 -202 0 -19 41 -16 155 12 197 49 457 77 878 94
114 5 210 11 213 14 3 2 0 25 -7 51 -15 61 -7 140 17 167 10 12 33 28 51 35
129 55 235 -65 185 -209 -11 -31 -17 -59 -12 -62 4 -3 93 -12 197 -20 421 -34
814 -108 1228 -232 154 -46 172 -55 218 -97 21 -20 42 -36 47 -36 5 0 35 23
67 51 121 106 325 237 451 290 252 105 657 231 1117 349 132 34 300 79 374
101 74 21 136 39 138 39 1 0 3 4 3 9 0 15 -77 29 -270 50 -310 34 -465 43
-690 43 l-215 0 -125 -37 c-193 -56 -435 -138 -540 -183 -176 -75 -464 -228
-577 -307 -70 -49 -103 -57 -103 -25 0 79 411 299 870 464 292 106 275 99 253
107 -26 10 -367 26 -938 44 -247 8 -589 20 -760 26 -392 16 -419 13 -527 -53
-46 -27 -144 -84 -218 -125 -74 -42 -148 -86 -165 -98 -47 -36 -288 -182 -312
-189 -26 -8 -37 7 -23 33 5 11 74 59 151 106 78 48 178 110 223 139 44 28 132
80 194 115 61 36 112 68 112 73 0 10 -212 8 -367 -3z"/>
<path d="M9808 5924 c-15 -8 -64 -28 -110 -45 -119 -43 -224 -98 -274 -142
l-44 -39 0 -236 c0 -131 4 -243 9 -251 7 -11 29 -3 113 44 138 78 220 131 245
158 36 38 113 350 113 455 0 60 -14 76 -52 56z"/>
<path d="M2310 5885 c-74 -13 -169 -36 -210 -50 -41 -14 -184 -52 -317 -85
-268 -65 -519 -143 -748 -230 -234 -90 -270 -105 -351 -156 -81 -50 -194 -151
-194 -172 0 -29 72 -43 259 -53 102 -5 218 -13 256 -19 118 -16 497 -50 566
-50 82 0 97 14 134 127 14 45 43 108 64 140 52 81 161 186 256 248 77 50 454
251 543 290 95 41 -48 47 -258 10z"/>
<path d="M7600 5866 c-148 -42 -226 -68 -234 -76 -17 -17 36 -28 190 -40 143
-12 151 -11 204 9 30 11 73 32 95 45 l40 25 -27 10 c-22 8 -211 43 -220 40 -2
0 -23 -6 -48 -13z"/>
<path d="M8245 5839 c-38 -11 -106 -23 -150 -29 -91 -10 -150 -31 -461 -158
-253 -103 -420 -182 -654 -306 -363 -194 -435 -249 -522 -406 -72 -128 -75
-124 90 -116 220 10 214 9 296 88 80 79 161 136 320 228 177 101 526 271 741
360 110 45 256 106 325 136 125 53 125 53 134 93 5 22 5 60 2 85 -8 54 -11 54
-121 25z"/>
<path d="M7130 5720 c-58 -10 -159 -35 -225 -55 -66 -19 -160 -45 -209 -56
-49 -11 -134 -33 -190 -48 -56 -16 -132 -36 -171 -45 -86 -20 -592 -184 -735
-238 -203 -77 -427 -207 -502 -291 -49 -55 -92 -116 -86 -122 14 -14 202 -27
533 -35 204 -5 460 -13 570 -16 l200 -7 45 99 c39 87 55 110 130 185 47 48
119 108 160 134 87 56 576 307 760 390 179 81 173 78 158 86 -23 13 -129 28
-233 33 -74 4 -127 1 -205 -14z"/>
<path d="M9210 5664 c-158 -55 -368 -137 -515 -199 -263 -112 -243 -100 -249
-159 -12 -117 -18 -594 -7 -600 12 -8 44 8 226 109 72 40 211 114 310 165 262
134 321 169 334 197 7 15 11 102 11 236 0 272 -7 287 -110 251z"/>
<path d="M9931 5624 c-108 -118 -184 -326 -231 -634 -11 -69 -23 -143 -26
-165 -12 -74 15 -24 45 84 16 56 32 105 35 108 3 4 12 -2 20 -12 12 -17 14
-17 45 6 24 18 36 21 48 13 58 -37 83 -522 38 -739 -22 -106 -48 -155 -81
-155 -57 0 -80 31 -108 140 -18 71 -39 110 -59 110 -22 0 -371 -234 -414 -277
-22 -22 -52 -43 -68 -47 -33 -8 -142 -81 -415 -276 -113 -80 -270 -191 -350
-246 -166 -114 -226 -168 -297 -275 l-51 -75 -16 -225 c-30 -403 -47 -515
-111 -699 -65 -187 -120 -269 -191 -289 -81 -23 -705 -8 -805 19 -31 9 -50 24
-86 70 -25 33 -53 60 -60 60 -8 0 -65 -21 -126 -46 -273 -112 -569 -200 -835
-247 -118 -20 -157 -22 -557 -22 -487 0 -513 3 -827 81 -434 109 -772 259
-1128 502 -181 124 -261 189 -472 384 l-94 87 -89 15 c-50 8 -120 18 -156 22
l-66 6 -18 -38 c-100 -218 -103 -222 -208 -328 -85 -86 -167 -151 -167 -132 0
3 48 56 106 118 58 62 119 132 136 156 35 51 88 175 88 208 0 26 -7 29 -105
44 -296 46 -855 172 -1271 287 -74 20 -94 14 -94 -28 0 -80 80 -313 163 -474
31 -60 64 -103 132 -171 101 -102 149 -127 279 -144 88 -12 237 -12 254 -2 9
6 -4 30 -49 88 -104 135 -188 308 -188 389 l0 40 19 -23 c10 -12 26 -46 36
-75 32 -99 122 -261 181 -327 62 -68 117 -99 175 -100 47 0 59 -18 19 -26 -17
-4 -31 -10 -31 -14 0 -32 266 -314 345 -365 28 -18 79 -59 115 -90 245 -216
650 -480 974 -636 603 -289 1265 -441 1936 -442 315 -1 719 46 1010 118 553
137 1058 360 1495 660 427 294 720 567 1022 953 87 110 255 359 332 490 125
214 314 628 333 730 6 31 12 63 14 70 2 9 34 12 111 12 59 0 114 4 122 9 11 7
5 23 -27 77 -41 70 -82 185 -82 231 0 36 18 18 26 -25 15 -84 87 -208 141
-244 61 -40 103 -16 148 86 34 78 52 157 64 296 14 144 14 591 1 685 -22 156
-68 295 -103 308 -25 10 -55 -21 -73 -76 -24 -71 -30 -41 -9 42 34 132 151
325 203 337 48 10 52 13 52 39 0 39 -18 65 -44 65 -16 0 -41 -18 -75 -56z
m-591 -1758 c22 -27 -5 -17 -31 10 -21 24 -22 26 -3 16 11 -6 26 -18 34 -26z
m-5634 -2113 c-3 -54 -9 -131 -12 -172 -9 -98 2 -93 92 42 82 124 111 158 130
150 19 -7 18 -91 -1 -208 -17 -106 -19 -148 -5 -143 9 3 75 91 163 218 25 36
57 54 57 32 0 -11 -100 -168 -171 -268 -66 -93 -90 -112 -109 -89 -10 12 -8
45 9 163 24 164 25 182 12 182 -9 0 -26 -24 -121 -173 -51 -79 -67 -97 -84
-95 -18 3 -22 11 -24 53 -3 46 13 185 40 343 16 99 32 77 24 -35z m2965 -79
c49 -25 23 -38 -48 -24 -153 30 -209 -77 -130 -245 51 -107 105 -136 184 -98
50 23 73 64 62 111 -11 49 -30 62 -77 51 -93 -22 -100 7 -9 39 86 31 91 29
112 -25 38 -100 19 -168 -60 -207 -53 -27 -146 -26 -183 1 -56 41 -102 160
-102 265 0 47 5 62 27 89 56 66 146 84 224 43z m-2341 -69 c0 -36 -76 -329
-95 -365 -16 -31 -35 -40 -35 -17 0 7 16 77 35 156 43 173 43 181 9 181 -39 0
-27 29 25 57 49 25 61 23 61 -12z m1931 -35 c52 -28 65 -133 25 -193 l-24 -35
54 -72 c52 -69 66 -100 43 -100 -11 0 -28 17 -106 103 -50 55 -82 66 -119 42
-28 -18 -29 -29 -8 -147 5 -31 4 -38 -9 -38 -9 0 -19 4 -22 10 -9 14 -75 350
-75 382 0 23 6 29 38 37 84 22 173 27 203 11z m-1611 -57 c0 -76 -60 -374 -77
-380 -7 -3 -16 -3 -19 0 -3 2 7 77 21 166 15 88 24 165 20 171 -3 5 -15 10
-25 10 -42 0 -33 27 20 59 52 31 60 28 60 -26z m380 -14 c54 -23 74 -49 37
-49 -12 1 -33 7 -47 15 -71 40 -160 -4 -160 -80 l0 -36 53 6 c125 16 202 -84
153 -198 -32 -76 -123 -110 -195 -72 -49 25 -61 65 -61 200 0 95 3 123 20 154
40 80 107 100 200 60z m830 -17 c44 -44 59 -88 66 -192 9 -150 -38 -210 -163
-210 -55 0 -66 3 -98 31 -46 41 -65 106 -65 224 0 80 3 96 22 120 29 37 93 65
152 65 43 0 53 -4 86 -38z m-471 -190 c13 -25 -8 -66 -36 -70 -31 -5 -59 39
-43 67 14 27 65 29 79 3z"/>
<path d="M6139 1541 c-55 -17 -69 -30 -69 -67 0 -43 24 -102 44 -110 25 -10
124 24 141 48 30 43 18 101 -26 123 -31 16 -50 17 -90 6z"/>
<path d="M4900 1307 c-28 -10 -38 -20 -49 -53 -13 -37 -12 -44 5 -80 25 -51
62 -69 108 -54 44 14 66 48 66 103 0 45 -26 87 -55 87 -7 0 -19 2 -27 4 -7 3
-29 0 -48 -7z"/>
<path d="M5676 1446 l-36 -33 0 -89 c1 -140 41 -207 124 -207 88 0 132 60 124
168 -6 69 -41 159 -72 180 -11 8 -39 15 -63 15 -34 0 -48 -6 -77 -34z"/>
<path d="M10263 5591 c-131 -110 -167 -147 -160 -164 16 -43 113 3 225 107 25
24 32 38 32 68 0 53 -24 50 -97 -11z"/>
<path d="M8230 5581 c-63 -26 -166 -71 -228 -100 -62 -28 -136 -61 -165 -72
-100 -39 -362 -161 -417 -193 -30 -18 -95 -55 -145 -81 -218 -116 -391 -232
-373 -250 4 -4 63 -11 130 -14 68 -4 133 -13 145 -19 30 -16 38 -52 24 -107
-14 -56 -14 -55 7 -55 10 0 58 33 107 73 153 123 203 158 425 297 137 85 293
171 428 237 l213 103 -6 93 c-7 105 -12 137 -23 136 -4 0 -59 -22 -122 -48z"/>
<path d="M3157 5573 c-32 -31 37 -155 78 -140 30 12 6 93 -39 129 -23 19 -30
21 -39 11z"/>
<path d="M3056 5537 c-29 -38 -43 -91 -27 -101 25 -16 79 45 88 99 5 31 3 35
-15 35 -12 0 -32 -14 -46 -33z"/>
<path d="M9952 5476 c-21 -20 -53 -62 -70 -94 l-31 -58 34 -27 c20 -16 47 -56
69 -102 20 -41 40 -75 45 -75 5 0 19 24 32 53 21 46 24 65 22 164 -2 169 -28
204 -101 139z"/>
<path d="M10256 5375 c-65 -45 -122 -89 -127 -97 -13 -23 17 -58 50 -58 45 0
226 143 237 187 7 24 -10 54 -30 52 -6 0 -64 -38 -130 -84z"/>
<path d="M3079 5401 c-20 -16 -21 -21 -10 -35 19 -23 74 -30 107 -14 39 18 40
34 5 52 -40 21 -74 20 -102 -3z"/>
<path d="M8259 5276 c-111 -44 -148 -63 -299 -154 -302 -182 -425 -267 -600
-415 -58 -49 -118 -91 -133 -94 -16 -3 -33 -15 -38 -27 -4 -12 -15 -86 -24
-165 -42 -378 -127 -451 -532 -451 -87 0 -503 5 -926 12 -703 11 -769 11 -783
-4 -11 -11 -14 -25 -10 -41 6 -24 10 -25 98 -31 148 -9 1071 -26 1432 -26 359
0 472 10 613 56 109 35 251 107 294 148 37 37 47 64 133 376 32 116 132 321
186 383 53 59 111 82 210 82 64 -1 83 -5 130 -30 68 -37 125 -118 159 -223 13
-39 29 -76 36 -82 16 -14 75 1 121 29 39 24 42 42 50 382 7 257 4 309 -19 309
-6 -1 -51 -16 -98 -34z"/>
<path d="M9650 5287 c-14 -6 -101 -52 -195 -103 -93 -50 -401 -214 -683 -363
-283 -150 -527 -281 -542 -293 -38 -28 -45 -49 -24 -65 29 -21 -58 -63 953
471 535 284 566 303 548 350 -7 18 -22 19 -57 3z"/>
<path d="M2974 5116 c-36 -35 -44 -50 -44 -80 0 -49 23 -92 60 -111 82 -42
170 14 170 110 0 48 -24 91 -60 110 -50 26 -78 19 -126 -29z m108 -33 c10 -9
18 -27 18 -40 0 -26 -41 -73 -64 -73 -44 0 -62 74 -26 110 24 24 47 25 72 3z"/>
<path d="M9635 5116 c-11 -8 -67 -39 -125 -71 -137 -74 -146 -83 -159 -158
-27 -151 -42 -387 -25 -387 4 0 45 29 93 64 47 34 113 81 147 104 l61 41 6
103 c4 57 13 127 21 157 8 29 18 78 22 107 7 59 -2 68 -41 40z"/>
<path d="M1843 4913 c-25 -5 -26 -9 -48 -111 -20 -96 -19 -129 3 -141 22 -11
87 -18 362 -36 124 -9 332 -24 464 -35 310 -26 332 -26 347 1 16 30 35 227 23
239 -5 5 -126 16 -269 25 -143 9 -357 24 -475 35 -267 23 -379 30 -407 23z"/>
<path d="M9067 4822 c-106 -55 -244 -128 -307 -164 -63 -36 -147 -82 -187
-102 -39 -21 -88 -52 -107 -69 l-36 -32 -9 -140 c-6 -77 -13 -209 -17 -292 -6
-140 -5 -153 10 -153 10 0 27 5 39 12 24 12 609 420 719 500 78 57 72 39 93
281 18 199 19 257 4 257 -6 0 -97 -44 -202 -98z"/>
<path d="M7781 4848 c-53 -26 -94 -80 -165 -218 -80 -156 -169 -489 -133 -502
4 -2 20 33 36 77 50 142 97 215 242 369 91 97 124 116 226 130 106 14 115 27
56 88 -74 78 -175 99 -262 56z"/>
<path d="M3056 4818 c-15 -12 -21 -36 -28 -127 -5 -62 -8 -115 -6 -116 7 -8
1382 -75 1525 -75 l82 0 7 35 c7 42 2 201 -8 210 -15 16 -289 34 -898 60 -679
29 -653 28 -674 13z"/>
<path d="M7919 4640 c-44 -23 -162 -142 -224 -225 -65 -87 -124 -209 -138
-287 -11 -63 -15 -69 -54 -95 -22 -16 -74 -53 -114 -84 -119 -91 -234 -141
-405 -176 -80 -16 -144 -18 -639 -17 -305 0 -742 8 -980 17 -434 17 -496 15
-516 -9 -14 -18 -4 -31 35 -48 54 -22 92 -25 511 -36 220 -6 533 -17 695 -25
349 -18 502 -19 676 -5 241 19 341 44 499 123 109 54 169 92 227 145 65 58 64
11 0 -60 -36 -40 -37 -42 -34 -116 l3 -76 -79 -75 c-94 -91 -167 -136 -275
-170 l-82 -26 -590 0 c-335 1 -690 6 -820 13 -309 17 -1197 52 -1313 52 -51 0
-102 -5 -113 -10 -22 -12 -25 -52 -5 -69 25 -21 347 -46 796 -61 157 -5 418
-14 580 -20 162 -5 408 -15 545 -21 313 -14 806 -6 925 15 186 33 289 82 412
196 69 64 71 66 79 129 9 66 56 180 118 289 30 53 41 64 74 73 55 15 91 3 131
-42 20 -21 36 -42 36 -47 0 -4 9 -48 20 -98 32 -154 44 -299 44 -524 0 -300
-35 -527 -115 -753 -46 -130 -84 -177 -143 -177 -91 0 -155 121 -222 415 -13
58 -15 110 -10 301 7 269 3 324 -26 324 -17 0 -142 -121 -313 -301 -51 -53
-200 -160 -247 -176 -28 -10 -85 -31 -127 -48 l-76 -30 0 -110 c1 -254 103
-541 238 -674 l45 -43 240 -2 c132 0 243 2 247 6 3 3 -18 53 -48 110 -78 148
-136 323 -146 446 -9 105 -5 155 12 149 6 -2 17 -39 24 -83 19 -111 71 -309
98 -370 13 -28 39 -76 59 -105 20 -30 36 -59 36 -64 0 -17 51 -62 83 -74 16
-6 51 -11 79 -11 169 0 285 228 333 653 8 72 20 152 25 177 30 134 40 557 19
776 -15 158 -76 457 -110 543 -16 41 -28 80 -25 88 9 22 33 14 44 -14 64 -178
82 -238 87 -293 9 -88 41 -259 50 -268 15 -15 35 34 35 87 0 31 7 128 15 216
8 88 18 246 22 350 5 165 4 198 -11 242 -28 84 -48 103 -109 103 -31 -1 -67
-9 -88 -20z"/>
<path d="M1776 4589 c-3 -17 -6 -65 -6 -105 0 -68 2 -75 23 -83 43 -17 719
-75 1015 -87 l162 -7 0 110 c0 106 -1 111 -22 117 -13 3 -129 12 -258 21 -196
13 -504 35 -841 60 l-67 5 -6 -31z"/>
<path d="M3017 4513 c-4 -3 -7 -50 -7 -104 0 -84 2 -98 18 -103 36 -10 154
-17 727 -46 325 -16 647 -33 716 -36 101 -6 128 -4 134 7 5 7 11 64 13 126 l5
113 -34 0 c-19 0 -322 11 -674 25 -656 25 -887 30 -898 18z"/>
<path d="M9389 4384 c-68 -48 -239 -166 -379 -262 -140 -97 -318 -221 -395
-277 -77 -55 -207 -147 -290 -202 -200 -135 -225 -158 -232 -208 -7 -58 13
-73 56 -42 17 12 138 98 269 192 130 93 408 289 617 436 399 281 525 383 525
425 0 43 -41 28 -171 -62z"/>
<path d="M8274 4389 c-79 -30 -84 -39 -100 -191 -20 -188 -30 -473 -17 -481 6
-4 48 12 94 36 l84 42 6 60 c12 114 22 440 15 498 -4 33 -12 57 -19 56 -7 0
-35 -9 -63 -20z"/>
<path d="M443 4383 c-22 -8 -15 -42 10 -47 103 -20 515 -84 747 -116 373 -52
415 -56 425 -40 22 36 -29 47 -670 144 -444 67 -482 72 -512 59z"/>
<path d="M1771 4242 c3 -67 9 -116 16 -123 17 -17 949 -99 1123 -99 l73 0 -6
112 c-4 61 -11 116 -16 121 -14 14 -694 74 -1065 93 l-128 7 3 -111z"/>
<path d="M102 4258 c-19 -19 -14 -44 13 -76 58 -69 168 -87 909 -152 132 -12
278 -28 325 -36 124 -20 146 -19 165 11 36 55 15 63 -202 80 -865 68 -1041 92
-1155 159 -33 20 -46 23 -55 14z"/>
<path d="M3028 4254 c-26 -8 -29 -33 -18 -130 6 -59 15 -93 25 -100 8 -6 41
-14 73 -18 83 -8 546 -34 842 -46 140 -6 335 -15 434 -21 120 -7 182 -7 189 0
13 13 36 134 37 193 0 36 -4 48 -17 52 -25 6 -159 14 -568 31 -192 9 -417 20
-500 25 -201 12 -476 20 -497 14z"/>
<path d="M1784 4057 c-9 -26 25 -172 45 -188 15 -12 56 -18 183 -23 90 -4 269
-16 398 -26 129 -10 291 -22 360 -25 69 -3 146 -8 173 -11 l47 -5 0 76 c0 107
-3 111 -102 124 -114 15 -360 38 -623 56 -121 9 -260 20 -310 25 -124 13 -165
12 -171 -3z"/>
<path d="M3027 3953 c-12 -12 -7 -129 6 -147 18 -25 64 -32 387 -55 674 -50
671 -50 705 -71 29 -18 50 -20 212 -20 132 0 183 3 191 13 17 20 43 136 40
175 -3 30 -8 37 -33 44 -32 9 -218 21 -595 38 -129 6 -318 15 -420 20 -217 11
-484 13 -493 3z"/>
<path d="M42 3928 c-44 -44 33 -118 164 -157 130 -39 263 -55 1244 -151 168
-17 317 -33 333 -36 45 -9 86 5 93 32 8 31 -8 50 -49 58 -18 3 -171 22 -342
41 -170 19 -344 40 -385 45 -41 6 -183 21 -315 35 -397 42 -529 67 -637 121
-52 26 -88 30 -106 12z"/>
<path d="M1956 3792 c-10 -17 -29 -367 -22 -406 8 -40 22 -51 81 -60 122 -19
727 -70 1859 -157 173 -13 169 -14 181 77 12 98 21 304 16 347 -6 41 -7 42
-60 54 -30 6 -100 16 -155 22 -130 14 -1021 77 -1281 91 -396 21 -541 30 -576
36 -21 4 -39 2 -43 -4z m464 -204 c44 -163 48 -161 100 40 8 30 16 42 29 42
21 0 29 -17 62 -132 13 -47 27 -78 35 -78 13 0 36 67 50 143 6 35 19 55 30 44
6 -6 -23 -142 -47 -214 -35 -106 -51 -98 -84 42 -35 147 -49 147 -79 0 -17
-84 -37 -118 -57 -98 -14 14 -79 239 -79 276 0 48 17 21 40 -65z m484 16 c9
-70 7 -244 -3 -244 -5 0 -11 47 -13 104 -3 95 -5 107 -28 131 -24 26 -25 27
-6 41 32 23 43 16 50 -32z m286 -106 c0 -73 -5 -140 -10 -148 -7 -10 -10 12
-10 71 0 111 -8 150 -32 156 -10 3 -18 8 -18 11 0 14 35 42 52 42 17 0 18 -10
18 -132z m333 111 c20 -5 37 -15 37 -21 0 -6 -9 -8 -22 -4 -62 18 -74 17 -101
-4 -34 -27 -36 -65 -4 -74 12 -3 37 -6 56 -6 24 0 42 -9 67 -34 92 -92 -12
-214 -124 -146 -42 26 -51 52 -53 153 -2 97 9 123 54 136 43 12 46 12 90 0z"/>
<path d="M3444 3470 c-38 -15 -42 -82 -6 -122 23 -27 87 -24 106 4 24 34 19
66 -13 99 -30 30 -50 34 -87 19z"/>
<path d="M623 3593 c-21 -8 -15 -27 22 -75 133 -175 481 -306 1195 -448 611
-121 1147 -198 1580 -225 135 -8 286 -20 335 -25 276 -30 406 -33 1130 -33
1076 2 1431 26 1795 123 93 25 174 57 221 86 44 27 109 101 109 125 0 24 -31
27 -177 18 -70 -4 -189 -8 -263 -9 l-135 0 -48 -61 c-62 -77 -114 -110 -235
-148 -112 -35 -163 -45 -362 -67 -223 -25 -1156 -22 -1665 5 -476 26 -936 64
-1030 85 -11 3 -78 10 -150 16 -71 6 -240 26 -375 45 -135 19 -288 39 -340 45
-133 16 -560 95 -683 125 -208 53 -466 144 -606 214 -31 16 -96 65 -146 108
-113 100 -134 112 -172 96z"/>
<path d="M873 3554 c-10 -26 36 -62 156 -123 207 -105 368 -168 522 -205 379
-92 1008 -184 1669 -246 911 -85 1056 -93 1725 -94 570 0 778 11 992 54 173
35 255 61 311 97 42 27 69 64 59 80 -4 6 -181 13 -414 16 -395 7 -636 18 -833
37 -52 5 -276 15 -497 22 -432 12 -433 12 -433 -37 0 -50 -8 -55 -84 -55 -39
0 -141 7 -226 15 -179 17 -805 69 -1025 85 -82 6 -213 18 -290 26 -77 8 -241
21 -364 30 -123 8 -231 19 -241 24 -11 6 -20 27 -24 61 -11 83 -13 85 -113 92
-48 3 -131 15 -183 26 -124 25 -643 111 -675 111 -14 0 -28 -7 -32 -16z"/>
</g>
</svg>
